<?xml version="1.0" encoding="UTF-8" standalone="no"?>
<!DOCTYPE svg PUBLIC "-//W3C//DTD SVG 1.1//EN"
 "http://www.w3.org/Graphics/SVG/1.1/DTD/svg11.dtd">
<!-- Generated by graphviz version 14.1.2 (20260124.0452)
 -->
<!-- Title: GarageDoor.cpp Pages: 1 -->
<svg width="235pt" height="140pt"
 viewBox="0.00 0.00 235.00 140.00" xmlns="http://www.w3.org/2000/svg" xmlns:xlink="http://www.w3.org/1999/xlink">

<svg id="main" version="1.1" xmlns="http://www.w3.org/2000/svg" xmlns:xlink="http://www.w3.org/1999/xlink" xml:space="preserve">

<style type="text/css"><![CDATA[
.node, .edge {opacity: 0.7;}
.node.selected, .edge.selected {opacity: 1;}
.edge:hover path { stroke: red; }
.edge:hover polygon { stroke: red; fill: red; }
]]></style>
<script type="application/ecmascript" xlink:href="svg.min.js"/>
<svg id="graph" class="graph">
<g id="graph0" class="graph" transform="scale(1 1) rotate(0) translate(4 136)">
<title>GarageDoor.cpp</title>
<!-- Node1 -->
<g id="Node000001" class="node">
<title>Node1</title>
<g id="a_Node000001"><a xlink:title="Implementation of garage door control and state monitoring.">
<polygon fill="#999999" stroke="#666666" points="135.54,-132 48.29,-132 48.29,-112 135.54,-112 135.54,-132"/>
<text xml:space="preserve" text-anchor="middle" x="91.91" y="-118.5" font-family="Helvetica,sans-Serif" font-size="10.00">GarageDoor.cpp</text>
</a>
</g>
</g>
<!-- Node2 -->
<g id="Node000002" class="node">
<title>Node2</title>
<g id="a_Node000002"><a xlink:title=" ">
<polygon fill="#e0e0e0" stroke="#999999" points="120.54,-20 63.29,-20 63.29,0 120.54,0 120.54,-20"/>
<text xml:space="preserve" text-anchor="middle" x="91.91" y="-6.5" font-family="Helvetica,sans-Serif" font-size="10.00">Arduino.h</text>
</a>
</g>
</g>
<!-- Node1&#45;&gt;Node2 -->
<g id="edge1_Node000001_Node000002" class="edge">
<title>Node1&#45;&gt;Node2</title>
<g id="a_edge1_Node000001_Node000002"><a xlink:title=" ">
<path fill="none" stroke="#63b8ff" d="M53.8,-111.6C35.34,-104.91 14.84,-93.86 3.91,-76 -11.05,-51.54 22.24,-33.33 52.07,-22.5"/>
<polygon fill="#63b8ff" stroke="#63b8ff" points="53.04,-25.86 61.38,-19.33 50.78,-19.24 53.04,-25.86"/>
</a>
</g>
</g>
<!-- Node3 -->
<g id="Node000003" class="node">
<title>Node3</title>
<g id="a_Node000003"><a xlink:href="_garage_door_8h.html" target="_top" xlink:title="Garage door controller with state detection and automatic closing.">
<polygon fill="white" stroke="#666666" points="89.29,-76 12.54,-76 12.54,-56 89.29,-56 89.29,-76"/>
<text xml:space="preserve" text-anchor="middle" x="50.91" y="-62.5" font-family="Helvetica,sans-Serif" font-size="10.00">GarageDoor.h</text>
</a>
</g>
</g>
<!-- Node1&#45;&gt;Node3 -->
<g id="edge2_Node000001_Node000003" class="edge">
<title>Node1&#45;&gt;Node3</title>
<g id="a_edge2_Node000001_Node000003"><a xlink:title=" ">
<path fill="none" stroke="#63b8ff" d="M84.77,-111.59C79.31,-104.39 71.59,-94.23 64.91,-85.43"/>
<polygon fill="#63b8ff" stroke="#63b8ff" points="67.72,-83.35 58.89,-77.5 62.15,-87.58 67.72,-83.35"/>
</a>
</g>
</g>
<!-- Node4 -->
<g id="Node000004" class="node">
<title>Node4</title>
<g id="a_Node000004"><a xlink:href="_motion_8h.html" target="_top" xlink:title="PIR motion sensor with debouncing and electromagnetic interference rejection.">
<polygon fill="white" stroke="#666666" points="160.66,-76 107.16,-76 107.16,-56 160.66,-56 160.66,-76"/>
<text xml:space="preserve" text-anchor="middle" x="133.91" y="-62.5" font-family="Helvetica,sans-Serif" font-size="10.00">Motion.h</text>
</a>
</g>
</g>
<!-- Node1&#45;&gt;Node4 -->
<g id="edge4_Node000001_Node000004" class="edge">
<title>Node1&#45;&gt;Node4</title>
<g id="a_edge4_Node000001_Node000004"><a xlink:title=" ">
<path fill="none" stroke="#63b8ff" d="M99.23,-111.59C104.89,-104.32 112.9,-94.02 119.8,-85.15"/>
<polygon fill="#63b8ff" stroke="#63b8ff" points="122.38,-87.54 125.75,-77.49 116.85,-83.24 122.38,-87.54"/>
</a>
</g>
</g>
<!-- Node5 -->
<g id="Node000005" class="node">
<title>Node5</title>
<g id="a_Node000005"><a xlink:href="_utility_8h.html" target="_top" xlink:title="Utility functions for timing, version information, and build configuration.">
<polygon fill="white" stroke="#666666" points="227.41,-76 178.41,-76 178.41,-56 227.41,-56 227.41,-76"/>
<text xml:space="preserve" text-anchor="middle" x="202.91" y="-62.5" font-family="Helvetica,sans-Serif" font-size="10.00">Utility.h</text>
</a>
</g>
</g>
<!-- Node1&#45;&gt;Node5 -->
<g id="edge6_Node000001_Node000005" class="edge">
<title>Node1&#45;&gt;Node5</title>
<g id="a_edge6_Node000001_Node000005"><a xlink:title=" ">
<path fill="none" stroke="#63b8ff" d="M111.25,-111.59C128.33,-103.28 153.52,-91.03 173.17,-81.47"/>
<polygon fill="#63b8ff" stroke="#63b8ff" points="174.61,-84.66 182.07,-77.14 171.54,-78.37 174.61,-84.66"/>
</a>
</g>
</g>
<!-- Node3&#45;&gt;Node2 -->
<g id="edge3_Node000003_Node000002" class="edge">
<title>Node3&#45;&gt;Node2</title>
<g id="a_edge3_Node000003_Node000002"><a xlink:title=" ">
<path fill="none" stroke="#63b8ff" d="M58.06,-55.59C63.52,-48.39 71.24,-38.23 77.92,-29.43"/>
<polygon fill="#63b8ff" stroke="#63b8ff" points="80.68,-31.58 83.94,-21.5 75.1,-27.35 80.68,-31.58"/>
</a>
</g>
</g>
<!-- Node4&#45;&gt;Node2 -->
<g id="edge5_Node000004_Node000002" class="edge">
<title>Node4&#45;&gt;Node2</title>
<g id="a_edge5_Node000004_Node000002"><a xlink:title=" ">
<path fill="none" stroke="#63b8ff" d="M126.6,-55.59C120.94,-48.32 112.93,-38.02 106.03,-29.15"/>
<polygon fill="#63b8ff" stroke="#63b8ff" points="108.98,-27.24 100.08,-21.49 103.45,-31.54 108.98,-27.24"/>
</a>
</g>
</g>
<!-- Node5&#45;&gt;Node2 -->
<g id="edge7_Node000005_Node000002" class="edge">
<title>Node5&#45;&gt;Node2</title>
<g id="a_edge7_Node000005_Node000002"><a xlink:title=" ">
<path fill="none" stroke="#63b8ff" d="M183.58,-55.59C166.49,-47.28 141.31,-35.03 121.66,-25.47"/>
<polygon fill="#63b8ff" stroke="#63b8ff" points="123.28,-22.37 112.76,-21.14 120.22,-28.66 123.28,-22.37"/>
</a>
</g>
</g>
</g>
</svg>
</svg>

<style type='text/css'>
<![CDATA[
[data-mouse-over-selected='false'] { opacity: 0.7; }
[data-mouse-over-selected='true']  { opacity: 1.0; }
]]>
</style>
<script type="application/ecmascript"><![CDATA[
document.addEventListener('DOMContentLoaded', (event) => {
  highlightEdges();
  highlightAdjacentNodes();
});
]]></script>
</svg>
