<?xml version="1.0" encoding="UTF-8" standalone="no"?>
<!DOCTYPE svg PUBLIC "-//W3C//DTD SVG 1.1//EN"
 "http://www.w3.org/Graphics/SVG/1.1/DTD/svg11.dtd">
<!-- Generated by graphviz version 14.1.2 (20260124.0452)
 -->
<!-- Title: HVAC.cpp Pages: 1 -->
<svg width="181pt" height="196pt"
 viewBox="0.00 0.00 181.00 196.00" xmlns="http://www.w3.org/2000/svg" xmlns:xlink="http://www.w3.org/1999/xlink">

<svg id="main" version="1.1" xmlns="http://www.w3.org/2000/svg" xmlns:xlink="http://www.w3.org/1999/xlink" xml:space="preserve">

<style type="text/css"><![CDATA[
.node, .edge {opacity: 0.7;}
.node.selected, .edge.selected {opacity: 1;}
.edge:hover path { stroke: red; }
.edge:hover polygon { stroke: red; fill: red; }
]]></style>
<script type="application/ecmascript" xlink:href="svg.min.js"/>
<svg id="graph" class="graph">
<g id="graph0" class="graph" transform="scale(1 1) rotate(0) translate(4 192)">
<title>HVAC.cpp</title>
<!-- Node1 -->
<g id="Node000001" class="node">
<title>Node1</title>
<g id="a_Node000001"><a xlink:title="Implementation of HVAC controller.">
<polygon fill="#999999" stroke="#666666" points="99.1,-188 36.6,-188 36.6,-168 99.1,-168 99.1,-188"/>
<text xml:space="preserve" text-anchor="middle" x="67.85" y="-174.5" font-family="Helvetica,sans-Serif" font-size="10.00">HVAC.cpp</text>
</a>
</g>
</g>
<!-- Node2 -->
<g id="Node000002" class="node">
<title>Node2</title>
<g id="a_Node000002"><a xlink:title=" ">
<polygon fill="#e0e0e0" stroke="#999999" points="80.48,-20 23.23,-20 23.23,0 80.48,0 80.48,-20"/>
<text xml:space="preserve" text-anchor="middle" x="51.85" y="-6.5" font-family="Helvetica,sans-Serif" font-size="10.00">Arduino.h</text>
</a>
</g>
</g>
<!-- Node1&#45;&gt;Node2 -->
<g id="edge1_Node000001_Node000002" class="edge">
<title>Node1&#45;&gt;Node2</title>
<g id="a_edge1_Node000001_Node000002"><a xlink:title=" ">
<path fill="none" stroke="#63b8ff" d="M45.79,-167.55C31.56,-160.15 14.19,-148.35 5.85,-132 -12.08,-96.83 16.26,-52.94 35.81,-28.87"/>
<polygon fill="#63b8ff" stroke="#63b8ff" points="38.22,-31.44 42.03,-21.55 32.89,-26.91 38.22,-31.44"/>
</a>
</g>
</g>
<!-- Node3 -->
<g id="Node000003" class="node">
<title>Node3</title>
<g id="a_Node000003"><a xlink:href="_h_v_a_c_8h.html" target="_top" xlink:title="HVAC heating and cooling system control with temperature&#45;based switching.">
<polygon fill="white" stroke="#666666" points="66.85,-132 14.85,-132 14.85,-112 66.85,-112 66.85,-132"/>
<text xml:space="preserve" text-anchor="middle" x="40.85" y="-118.5" font-family="Helvetica,sans-Serif" font-size="10.00">HVAC.h</text>
</a>
</g>
</g>
<!-- Node1&#45;&gt;Node3 -->
<g id="edge2_Node000001_Node000003" class="edge">
<title>Node1&#45;&gt;Node3</title>
<g id="a_edge2_Node000001_Node000003"><a xlink:title=" ">
<path fill="none" stroke="#63b8ff" d="M63.15,-167.59C59.7,-160.7 54.9,-151.1 50.64,-142.57"/>
<polygon fill="#63b8ff" stroke="#63b8ff" points="53.78,-141.03 46.18,-133.65 47.52,-144.16 53.78,-141.03"/>
</a>
</g>
</g>
<!-- Node4 -->
<g id="Node000004" class="node">
<title>Node4</title>
<g id="a_Node000004"><a xlink:href="_motion_8h.html" target="_top" xlink:title="PIR motion sensor with debouncing and electromagnetic interference rejection.">
<polygon fill="white" stroke="#666666" points="106.6,-76 53.1,-76 53.1,-56 106.6,-56 106.6,-76"/>
<text xml:space="preserve" text-anchor="middle" x="79.85" y="-62.5" font-family="Helvetica,sans-Serif" font-size="10.00">Motion.h</text>
</a>
</g>
</g>
<!-- Node1&#45;&gt;Node4 -->
<g id="edge6_Node000001_Node000004" class="edge">
<title>Node1&#45;&gt;Node4</title>
<g id="a_edge6_Node000001_Node000004"><a xlink:title=" ">
<path fill="none" stroke="#63b8ff" d="M69.82,-167.74C71.67,-158.67 74.37,-144.45 75.85,-132 77.62,-117.18 78.63,-100.36 79.19,-87.55"/>
<polygon fill="#63b8ff" stroke="#63b8ff" points="82.68,-87.92 79.56,-77.8 75.68,-87.66 82.68,-87.92"/>
</a>
</g>
</g>
<!-- Node5 -->
<g id="Node000005" class="node">
<title>Node5</title>
<g id="a_Node000005"><a xlink:href="_utility_8h.html" target="_top" xlink:title="Utility functions for timing, version information, and build configuration.">
<polygon fill="white" stroke="#666666" points="173.35,-76 124.35,-76 124.35,-56 173.35,-56 173.35,-76"/>
<text xml:space="preserve" text-anchor="middle" x="148.85" y="-62.5" font-family="Helvetica,sans-Serif" font-size="10.00">Utility.h</text>
</a>
</g>
</g>
<!-- Node1&#45;&gt;Node5 -->
<g id="edge7_Node000001_Node000005" class="edge">
<title>Node1&#45;&gt;Node5</title>
<g id="a_edge7_Node000001_Node000005"><a xlink:title=" ">
<path fill="none" stroke="#63b8ff" d="M74.76,-167.62C88.15,-149.44 117.86,-109.09 135.32,-85.38"/>
<polygon fill="#63b8ff" stroke="#63b8ff" points="137.96,-87.7 141.07,-77.57 132.32,-83.55 137.96,-87.7"/>
</a>
</g>
</g>
<!-- Node3&#45;&gt;Node2 -->
<g id="edge3_Node000003_Node000002" class="edge">
<title>Node3&#45;&gt;Node2</title>
<g id="a_edge3_Node000003_Node000002"><a xlink:title=" ">
<path fill="none" stroke="#63b8ff" d="M40.9,-111.71C41.06,-99.07 41.65,-75.76 43.85,-56 44.75,-47.92 46.22,-39.1 47.64,-31.43"/>
<polygon fill="#63b8ff" stroke="#63b8ff" points="51.05,-32.23 49.55,-21.74 44.19,-30.88 51.05,-32.23"/>
</a>
</g>
</g>
<!-- Node3&#45;&gt;Node4 -->
<g id="edge4_Node000003_Node000004" class="edge">
<title>Node3&#45;&gt;Node4</title>
<g id="a_edge4_Node000003_Node000004"><a xlink:title=" ">
<path fill="none" stroke="#63b8ff" d="M47.65,-111.59C52.85,-104.39 60.18,-94.23 66.54,-85.43"/>
<polygon fill="#63b8ff" stroke="#63b8ff" points="69.23,-87.68 72.25,-77.53 63.56,-83.58 69.23,-87.68"/>
</a>
</g>
</g>
<!-- Node4&#45;&gt;Node2 -->
<g id="edge5_Node000004_Node000002" class="edge">
<title>Node4&#45;&gt;Node2</title>
<g id="a_edge5_Node000004_Node000002"><a xlink:title=" ">
<path fill="none" stroke="#63b8ff" d="M74.98,-55.59C71.36,-48.63 66.31,-38.89 61.85,-30.29"/>
<polygon fill="#63b8ff" stroke="#63b8ff" points="65.08,-28.91 57.37,-21.64 58.87,-32.13 65.08,-28.91"/>
</a>
</g>
</g>
<!-- Node5&#45;&gt;Node2 -->
<g id="edge8_Node000005_Node000002" class="edge">
<title>Node5&#45;&gt;Node2</title>
<g id="a_edge8_Node000005_Node000002"><a xlink:title=" ">
<path fill="none" stroke="#63b8ff" d="M131.96,-55.59C117.3,-47.44 95.83,-35.48 78.81,-26"/>
<polygon fill="#63b8ff" stroke="#63b8ff" points="80.64,-23.02 70.2,-21.22 77.24,-29.14 80.64,-23.02"/>
</a>
</g>
</g>
</g>
</svg>
</svg>

<style type='text/css'>
<![CDATA[
[data-mouse-over-selected='false'] { opacity: 0.7; }
[data-mouse-over-selected='true']  { opacity: 1.0; }
]]>
</style>
<script type="application/ecmascript"><![CDATA[
document.addEventListener('DOMContentLoaded', (event) => {
  highlightEdges();
  highlightAdjacentNodes();
});
]]></script>
</svg>
