<?xml version="1.0" encoding="UTF-8" standalone="no"?>
<!DOCTYPE svg PUBLIC "-//W3C//DTD SVG 1.1//EN"
 "http://www.w3.org/Graphics/SVG/1.1/DTD/svg11.dtd">
<!-- Generated by graphviz version 14.1.2 (20260124.0452)
 -->
<!-- Title: HVAC.h Pages: 1 -->
<svg width="91pt" height="140pt"
 viewBox="0.00 0.00 91.00 140.00" xmlns="http://www.w3.org/2000/svg" xmlns:xlink="http://www.w3.org/1999/xlink">
<g id="graph0" class="graph" transform="scale(1 1) rotate(0) translate(4 136)">
<title>HVAC.h</title>
<!-- Node1 -->
<g id="Node000001" class="node">
<title>Node1</title>
<g id="a_Node000001"><a xlink:title="HVAC heating and cooling system control with temperature&#45;based switching.">
<polygon fill="#999999" stroke="#666666" points="54.62,-132 2.62,-132 2.62,-112 54.62,-112 54.62,-132"/>
<text xml:space="preserve" text-anchor="middle" x="28.62" y="-118.5" font-family="Helvetica,sans-Serif" font-size="10.00">HVAC.h</text>
</a>
</g>
</g>
<!-- Node2 -->
<g id="Node000002" class="node">
<title>Node2</title>
<g id="a_Node000002"><a xlink:title=" ">
<polygon fill="#e0e0e0" stroke="#999999" points="57.25,-20 0,-20 0,0 57.25,0 57.25,-20"/>
<text xml:space="preserve" text-anchor="middle" x="28.62" y="-6.5" font-family="Helvetica,sans-Serif" font-size="10.00">Arduino.h</text>
</a>
</g>
</g>
<!-- Node1&#45;&gt;Node2 -->
<g id="edge1_Node000001_Node000002" class="edge">
<title>Node1&#45;&gt;Node2</title>
<g id="a_edge1_Node000001_Node000002"><a xlink:title=" ">
<path fill="none" stroke="#63b8ff" d="M26.49,-111.76C24.52,-102.7 21.73,-88.49 20.62,-76 19.31,-61.05 21.47,-44.24 23.88,-31.45"/>
<polygon fill="#63b8ff" stroke="#63b8ff" points="27.3,-32.22 25.94,-21.72 20.45,-30.78 27.3,-32.22"/>
</a>
</g>
</g>
<!-- Node3 -->
<g id="Node000003" class="node">
<title>Node3</title>
<g id="a_Node000003"><a xlink:href="_motion_8h.html" target="_top" xlink:title="PIR motion sensor with debouncing and electromagnetic interference rejection.">
<polygon fill="white" stroke="#666666" points="83.38,-76 29.88,-76 29.88,-56 83.38,-56 83.38,-76"/>
<text xml:space="preserve" text-anchor="middle" x="56.62" y="-62.5" font-family="Helvetica,sans-Serif" font-size="10.00">Motion.h</text>
</a>
</g>
</g>
<!-- Node1&#45;&gt;Node3 -->
<g id="edge2_Node000001_Node000003" class="edge">
<title>Node1&#45;&gt;Node3</title>
<g id="a_edge2_Node000001_Node000003"><a xlink:title=" ">
<path fill="none" stroke="#63b8ff" d="M33.5,-111.59C37.12,-104.63 42.17,-94.89 46.62,-86.29"/>
<polygon fill="#63b8ff" stroke="#63b8ff" points="49.61,-88.13 51.11,-77.64 43.4,-84.91 49.61,-88.13"/>
</a>
</g>
</g>
<!-- Node3&#45;&gt;Node2 -->
<g id="edge3_Node000003_Node000002" class="edge">
<title>Node3&#45;&gt;Node2</title>
<g id="a_edge3_Node000003_Node000002"><a xlink:title=" ">
<path fill="none" stroke="#63b8ff" d="M51.75,-55.59C48.13,-48.63 43.08,-38.89 38.63,-30.29"/>
<polygon fill="#63b8ff" stroke="#63b8ff" points="41.85,-28.91 34.14,-21.64 35.64,-32.13 41.85,-28.91"/>
</a>
</g>
</g>
</g>
</svg>
