<?xml version="1.0" encoding="UTF-8" standalone="no"?>
<!DOCTYPE svg PUBLIC "-//W3C//DTD SVG 1.1//EN"
 "http://www.w3.org/Graphics/SVG/1.1/DTD/svg11.dtd">
<!-- Generated by graphviz version 14.1.2 (20260124.0452)
 -->
<!-- Title: HVAC.h Pages: 1 -->
<svg width="301pt" height="84pt"
 viewBox="0.00 0.00 301.00 84.00" xmlns="http://www.w3.org/2000/svg" xmlns:xlink="http://www.w3.org/1999/xlink">
<g id="graph0" class="graph" transform="scale(1 1) rotate(0) translate(4 80)">
<title>HVAC.h</title>
<!-- Node1 -->
<g id="Node000001" class="node">
<title>Node1</title>
<g id="a_Node000001"><a xlink:title="HVAC heating and cooling system control with temperature&#45;based switching.">
<polygon fill="#999999" stroke="#666666" points="153.25,-76 101.25,-76 101.25,-56 153.25,-56 153.25,-76"/>
<text xml:space="preserve" text-anchor="middle" x="127.25" y="-62.5" font-family="Helvetica,sans-Serif" font-size="10.00">HVAC.h</text>
</a>
</g>
</g>
<!-- Node2 -->
<g id="Node000002" class="node">
<title>Node2</title>
<g id="a_Node000002"><a xlink:href="_h_v_a_c_8cpp.html" target="_top" xlink:title="Implementation of HVAC controller.">
<polygon fill="white" stroke="#666666" points="62.5,-20 0,-20 0,0 62.5,0 62.5,-20"/>
<text xml:space="preserve" text-anchor="middle" x="31.25" y="-6.5" font-family="Helvetica,sans-Serif" font-size="10.00">HVAC.cpp</text>
</a>
</g>
</g>
<!-- Node1&#45;&gt;Node2 -->
<g id="edge1_Node000001_Node000002" class="edge">
<title>Node1&#45;&gt;Node2</title>
<g id="a_edge1_Node000001_Node000002"><a xlink:title=" ">
<path fill="none" stroke="#63b8ff" d="M100.73,-50.08C83.9,-40.62 62.65,-28.66 48.1,-20.48"/>
<polygon fill="#63b8ff" stroke="#63b8ff" points="98.78,-53 109.21,-54.85 102.21,-46.9 98.78,-53"/>
</a>
</g>
</g>
<!-- Node3 -->
<g id="Node000003" class="node">
<title>Node3</title>
<g id="a_Node000003"><a xlink:href="_lcd_controller_8cpp.html" target="_top" xlink:title="Implementation of LCD display controller for garage control system.">
<polygon fill="white" stroke="#666666" points="173.5,-20 81,-20 81,0 173.5,0 173.5,-20"/>
<text xml:space="preserve" text-anchor="middle" x="127.25" y="-6.5" font-family="Helvetica,sans-Serif" font-size="10.00">LcdController.cpp</text>
</a>
</g>
</g>
<!-- Node1&#45;&gt;Node3 -->
<g id="edge2_Node000001_Node000003" class="edge">
<title>Node1&#45;&gt;Node3</title>
<g id="a_edge2_Node000001_Node000003"><a xlink:title=" ">
<path fill="none" stroke="#63b8ff" d="M127.25,-44.13C127.25,-35.9 127.25,-26.85 127.25,-20.3"/>
<polygon fill="#63b8ff" stroke="#63b8ff" points="123.75,-44.08 127.25,-54.08 130.75,-44.08 123.75,-44.08"/>
</a>
</g>
</g>
<!-- Node4 -->
<g id="Node000004" class="node">
<title>Node4</title>
<g id="a_Node000004"><a xlink:href="_menu_controller_8cpp.html" target="_top" xlink:title="Button debounce approach ──────────────────────── Each button has its own lastPressTime and lastPinSt...">
<polygon fill="white" stroke="#666666" points="292.62,-20 191.88,-20 191.88,0 292.62,0 292.62,-20"/>
<text xml:space="preserve" text-anchor="middle" x="242.25" y="-6.5" font-family="Helvetica,sans-Serif" font-size="10.00">MenuController.cpp</text>
</a>
</g>
</g>
<!-- Node1&#45;&gt;Node4 -->
<g id="edge3_Node000001_Node000004" class="edge">
<title>Node1&#45;&gt;Node4</title>
<g id="a_edge3_Node000001_Node000004"><a xlink:title=" ">
<path fill="none" stroke="#63b8ff" d="M157.61,-50.75C177.97,-41.18 204.23,-28.85 222.06,-20.48"/>
<polygon fill="#63b8ff" stroke="#63b8ff" points="156.22,-47.53 148.65,-54.95 159.19,-53.87 156.22,-47.53"/>
</a>
</g>
</g>
</g>
</svg>
