<?xml version="1.0" encoding="UTF-8" standalone="no"?>
<!DOCTYPE svg PUBLIC "-//W3C//DTD SVG 1.1//EN"
 "http://www.w3.org/Graphics/SVG/1.1/DTD/svg11.dtd">
<!-- Generated by graphviz version 14.1.2 (20260124.0452)
 -->
<!-- Title: LcdController.cpp Pages: 1 -->
<svg width="834pt" height="196pt"
 viewBox="0.00 0.00 834.00 196.00" xmlns="http://www.w3.org/2000/svg" xmlns:xlink="http://www.w3.org/1999/xlink">
<g id="graph0" class="graph" transform="scale(1 1) rotate(0) translate(4 192)">
<title>LcdController.cpp</title>
<!-- Node1 -->
<g id="Node000001" class="node">
<title>Node1</title>
<g id="a_Node000001"><a xlink:title="Implementation of LCD display controller for garage control system.">
<polygon fill="#999999" stroke="#666666" points="337,-188 244.5,-188 244.5,-168 337,-168 337,-188"/>
<text xml:space="preserve" text-anchor="middle" x="290.75" y="-174.5" font-family="Helvetica,sans-Serif" font-size="10.00">LcdController.cpp</text>
</a>
</g>
</g>
<!-- Node2 -->
<g id="Node000002" class="node">
<title>Node2</title>
<g id="a_Node000002"><a xlink:title=" ">
<polygon fill="#e0e0e0" stroke="#999999" points="357.37,-20 300.12,-20 300.12,0 357.37,0 357.37,-20"/>
<text xml:space="preserve" text-anchor="middle" x="328.75" y="-6.5" font-family="Helvetica,sans-Serif" font-size="10.00">Arduino.h</text>
</a>
</g>
</g>
<!-- Node1&#45;&gt;Node2 -->
<g id="edge1_Node000001_Node000002" class="edge">
<title>Node1&#45;&gt;Node2</title>
<g id="a_edge1_Node000001_Node000002"><a xlink:title=" ">
<path fill="none" stroke="#63b8ff" d="M244.03,-175.15C176.56,-171.49 56.53,-161 25.75,-132 0.8,-108.51 -9.71,-81.88 12.75,-56 48.02,-15.34 211.75,-10.48 288.65,-10.5"/>
<polygon fill="#63b8ff" stroke="#63b8ff" points="288.25,-13.99 298.26,-10.53 288.27,-6.99 288.25,-13.99"/>
</a>
</g>
</g>
<!-- Node3 -->
<g id="Node000003" class="node">
<title>Node3</title>
<g id="a_Node000003"><a xlink:title=" ">
<polygon fill="#e0e0e0" stroke="#999999" points="123.87,-76 21.62,-76 21.62,-56 123.87,-56 123.87,-76"/>
<text xml:space="preserve" text-anchor="middle" x="72.75" y="-62.5" font-family="Helvetica,sans-Serif" font-size="10.00">LiquidCrystal_I2C.h</text>
</a>
</g>
</g>
<!-- Node1&#45;&gt;Node3 -->
<g id="edge2_Node000001_Node000003" class="edge">
<title>Node1&#45;&gt;Node3</title>
<g id="a_edge2_Node000001_Node000003"><a xlink:title=" ">
<path fill="none" stroke="#63b8ff" d="M244.19,-175.72C177.78,-172.8 60.97,-163.23 34.75,-132 22.24,-117.1 37.11,-97.56 51.76,-83.81"/>
<polygon fill="#63b8ff" stroke="#63b8ff" points="53.79,-86.68 59.01,-77.46 49.18,-81.42 53.79,-86.68"/>
</a>
</g>
</g>
<!-- Node4 -->
<g id="Node000004" class="node">
<title>Node4</title>
<g id="a_Node000004"><a xlink:href="_lcd_controller_8h.html" target="_top" xlink:title="LCD display manager for 4x20 I2C backlit display.">
<polygon fill="white" stroke="#666666" points="125.75,-132 43.75,-132 43.75,-112 125.75,-112 125.75,-132"/>
<text xml:space="preserve" text-anchor="middle" x="84.75" y="-118.5" font-family="Helvetica,sans-Serif" font-size="10.00">LcdController.h</text>
</a>
</g>
</g>
<!-- Node1&#45;&gt;Node4 -->
<g id="edge3_Node000001_Node000004" class="edge">
<title>Node1&#45;&gt;Node4</title>
<g id="a_edge3_Node000001_Node000004"><a xlink:title=" ">
<path fill="none" stroke="#63b8ff" d="M254.86,-167.59C220.81,-158.67 169.41,-145.19 132.03,-135.39"/>
<polygon fill="#63b8ff" stroke="#63b8ff" points="132.93,-132.01 122.37,-132.86 131.16,-138.78 132.93,-132.01"/>
</a>
</g>
</g>
<!-- Node5 -->
<g id="Node000005" class="node">
<title>Node5</title>
<g id="a_Node000005"><a xlink:href="_menu_controller_8h.html" target="_top" xlink:title="Menu navigation controller with debounced button input.">
<polygon fill="white" stroke="#666666" points="233.87,-132 143.62,-132 143.62,-112 233.87,-112 233.87,-132"/>
<text xml:space="preserve" text-anchor="middle" x="188.75" y="-118.5" font-family="Helvetica,sans-Serif" font-size="10.00">MenuController.h</text>
</a>
</g>
</g>
<!-- Node1&#45;&gt;Node5 -->
<g id="edge6_Node000001_Node000005" class="edge">
<title>Node1&#45;&gt;Node5</title>
<g id="a_edge6_Node000001_Node000005"><a xlink:title=" ">
<path fill="none" stroke="#63b8ff" d="M272.98,-167.59C257.42,-159.36 234.57,-147.26 216.58,-137.74"/>
<polygon fill="#63b8ff" stroke="#63b8ff" points="218.47,-134.77 207.99,-133.19 215.19,-140.96 218.47,-134.77"/>
</a>
</g>
</g>
<!-- Node6 -->
<g id="Node000006" class="node">
<title>Node6</title>
<g id="a_Node000006"><a xlink:href="_garage_door_8h.html" target="_top" xlink:title="Garage door controller with state detection and automatic closing.">
<polygon fill="white" stroke="#666666" points="329.12,-132 252.37,-132 252.37,-112 329.12,-112 329.12,-132"/>
<text xml:space="preserve" text-anchor="middle" x="290.75" y="-118.5" font-family="Helvetica,sans-Serif" font-size="10.00">GarageDoor.h</text>
</a>
</g>
</g>
<!-- Node1&#45;&gt;Node6 -->
<g id="edge8_Node000001_Node000006" class="edge">
<title>Node1&#45;&gt;Node6</title>
<g id="a_edge8_Node000001_Node000006"><a xlink:title=" ">
<path fill="none" stroke="#63b8ff" d="M290.75,-167.59C290.75,-161.01 290.75,-151.96 290.75,-143.73"/>
<polygon fill="#63b8ff" stroke="#63b8ff" points="294.25,-143.81 290.75,-133.81 287.25,-143.81 294.25,-143.81"/>
</a>
</g>
</g>
<!-- Node7 -->
<g id="Node000007" class="node">
<title>Node7</title>
<g id="a_Node000007"><a xlink:href="_garage_light_8h.html" target="_top" xlink:title="Garage light control with automatic timeout and motion&#45;based extension.">
<polygon fill="white" stroke="#666666" points="424.12,-132 347.37,-132 347.37,-112 424.12,-112 424.12,-132"/>
<text xml:space="preserve" text-anchor="middle" x="385.75" y="-118.5" font-family="Helvetica,sans-Serif" font-size="10.00">GarageLight.h</text>
</a>
</g>
</g>
<!-- Node1&#45;&gt;Node7 -->
<g id="edge10_Node000001_Node000007" class="edge">
<title>Node1&#45;&gt;Node7</title>
<g id="a_edge10_Node000001_Node000007"><a xlink:title=" ">
<path fill="none" stroke="#63b8ff" d="M307.29,-167.59C321.65,-159.44 342.67,-147.48 359.35,-138"/>
<polygon fill="#63b8ff" stroke="#63b8ff" points="360.79,-141.21 367.75,-133.23 357.33,-135.13 360.79,-141.21"/>
</a>
</g>
</g>
<!-- Node8 -->
<g id="Node000008" class="node">
<title>Node8</title>
<g id="a_Node000008"><a xlink:href="_h_v_a_c_8h.html" target="_top" xlink:title="HVAC heating and cooling system control with temperature&#45;based switching.">
<polygon fill="white" stroke="#666666" points="493.75,-132 441.75,-132 441.75,-112 493.75,-112 493.75,-132"/>
<text xml:space="preserve" text-anchor="middle" x="467.75" y="-118.5" font-family="Helvetica,sans-Serif" font-size="10.00">HVAC.h</text>
</a>
</g>
</g>
<!-- Node1&#45;&gt;Node8 -->
<g id="edge12_Node000001_Node000008" class="edge">
<title>Node1&#45;&gt;Node8</title>
<g id="a_edge12_Node000001_Node000008"><a xlink:title=" ">
<path fill="none" stroke="#63b8ff" d="M321.58,-167.59C351.88,-158.35 398.16,-144.23 430.5,-134.36"/>
<polygon fill="#63b8ff" stroke="#63b8ff" points="431.32,-137.77 439.86,-131.51 429.27,-131.08 431.32,-137.77"/>
</a>
</g>
</g>
<!-- Node10 -->
<g id="Node000010" class="node">
<title>Node10</title>
<g id="a_Node000010"><a xlink:href="_utility_8h.html" target="_top" xlink:title="Utility functions for timing, version information, and build configuration.">
<polygon fill="white" stroke="#666666" points="515.25,-76 466.25,-76 466.25,-56 515.25,-56 515.25,-76"/>
<text xml:space="preserve" text-anchor="middle" x="490.75" y="-62.5" font-family="Helvetica,sans-Serif" font-size="10.00">Utility.h</text>
</a>
</g>
</g>
<!-- Node1&#45;&gt;Node10 -->
<g id="edge16_Node000001_Node000010" class="edge">
<title>Node1&#45;&gt;Node10</title>
<g id="a_edge16_Node000001_Node000010"><a xlink:title=" ">
<path fill="none" stroke="#63b8ff" d="M337.18,-173.81C393.16,-168.88 482.32,-157.22 502.75,-132 513.12,-119.19 508.08,-100.3 501.65,-86.18"/>
<polygon fill="#63b8ff" stroke="#63b8ff" points="504.84,-84.73 497.16,-77.43 498.61,-87.93 504.84,-84.73"/>
</a>
</g>
</g>
<!-- Node11 -->
<g id="Node000011" class="node">
<title>Node11</title>
<g id="a_Node000011"><a xlink:href="_m_q_t_t_8h.html" target="_top" xlink:title=" ">
<polygon fill="white" stroke="#666666" points="619.37,-132 568.12,-132 568.12,-112 619.37,-112 619.37,-132"/>
<text xml:space="preserve" text-anchor="middle" x="593.75" y="-118.5" font-family="Helvetica,sans-Serif" font-size="10.00">MQTT.h</text>
</a>
</g>
</g>
<!-- Node1&#45;&gt;Node11 -->
<g id="edge18_Node000001_Node000011" class="edge">
<title>Node1&#45;&gt;Node11</title>
<g id="a_edge18_Node000001_Node000011"><a xlink:title=" ">
<path fill="none" stroke="#63b8ff" d="M337.43,-168.68C397.71,-157.94 501.44,-139.45 556.64,-129.61"/>
<polygon fill="#63b8ff" stroke="#63b8ff" points="556.93,-133.12 566.17,-127.92 555.71,-126.22 556.93,-133.12"/>
</a>
</g>
</g>
<!-- Node4&#45;&gt;Node2 -->
<g id="edge4_Node000004_Node000002" class="edge">
<title>Node4&#45;&gt;Node2</title>
<g id="a_edge4_Node000004_Node000002"><a xlink:title=" ">
<path fill="none" stroke="#63b8ff" d="M105.55,-111.62C148.5,-92.26 247.17,-47.78 297.69,-25"/>
<polygon fill="#63b8ff" stroke="#63b8ff" points="298.94,-28.28 306.62,-20.98 296.06,-21.9 298.94,-28.28"/>
</a>
</g>
</g>
<!-- Node4&#45;&gt;Node3 -->
<g id="edge5_Node000004_Node000003" class="edge">
<title>Node4&#45;&gt;Node3</title>
<g id="a_edge5_Node000004_Node000003"><a xlink:title=" ">
<path fill="none" stroke="#63b8ff" d="M82.66,-111.59C81.18,-104.93 79.13,-95.75 77.29,-87.44"/>
<polygon fill="#63b8ff" stroke="#63b8ff" points="80.73,-86.78 75.14,-77.78 73.89,-88.3 80.73,-86.78"/>
</a>
</g>
</g>
<!-- Node5&#45;&gt;Node2 -->
<g id="edge7_Node000005_Node000002" class="edge">
<title>Node5&#45;&gt;Node2</title>
<g id="a_edge7_Node000005_Node000002"><a xlink:title=" ">
<path fill="none" stroke="#63b8ff" d="M200.68,-111.62C224.55,-92.87 278.41,-50.55 308.11,-27.21"/>
<polygon fill="#63b8ff" stroke="#63b8ff" points="309.95,-30.22 315.65,-21.29 305.62,-24.72 309.95,-30.22"/>
</a>
</g>
</g>
<!-- Node6&#45;&gt;Node2 -->
<g id="edge9_Node000006_Node000002" class="edge">
<title>Node6&#45;&gt;Node2</title>
<g id="a_edge9_Node000006_Node000002"><a xlink:title=" ">
<path fill="none" stroke="#63b8ff" d="M293.99,-111.62C300.13,-93.84 313.59,-54.88 321.84,-31"/>
<polygon fill="#63b8ff" stroke="#63b8ff" points="325.06,-32.38 325.02,-21.79 318.45,-30.09 325.06,-32.38"/>
</a>
</g>
</g>
<!-- Node7&#45;&gt;Node2 -->
<g id="edge11_Node000007_Node000002" class="edge">
<title>Node7&#45;&gt;Node2</title>
<g id="a_edge11_Node000007_Node000002"><a xlink:title=" ">
<path fill="none" stroke="#63b8ff" d="M377.57,-111.52C370.32,-102.76 359.81,-89.14 352.75,-76 344.98,-61.56 338.68,-44.07 334.49,-30.88"/>
<polygon fill="#63b8ff" stroke="#63b8ff" points="337.94,-30.18 331.69,-21.62 331.24,-32.21 337.94,-30.18"/>
</a>
</g>
</g>
<!-- Node8&#45;&gt;Node2 -->
<g id="edge13_Node000008_Node000002" class="edge">
<title>Node8&#45;&gt;Node2</title>
<g id="a_edge13_Node000008_Node000002"><a xlink:title=" ">
<path fill="none" stroke="#63b8ff" d="M445.93,-111.6C428.64,-103.56 404.36,-90.94 385.75,-76 368.79,-62.39 352.78,-43.37 342.06,-29.42"/>
<polygon fill="#63b8ff" stroke="#63b8ff" points="344.96,-27.45 336.17,-21.53 339.35,-31.63 344.96,-27.45"/>
</a>
</g>
</g>
<!-- Node9 -->
<g id="Node000009" class="node">
<title>Node9</title>
<g id="a_Node000009"><a xlink:href="_motion_8h.html" target="_top" xlink:title="PIR motion sensor with debouncing and electromagnetic interference rejection.">
<polygon fill="white" stroke="#666666" points="448.5,-76 395,-76 395,-56 448.5,-56 448.5,-76"/>
<text xml:space="preserve" text-anchor="middle" x="421.75" y="-62.5" font-family="Helvetica,sans-Serif" font-size="10.00">Motion.h</text>
</a>
</g>
</g>
<!-- Node8&#45;&gt;Node9 -->
<g id="edge14_Node000008_Node000009" class="edge">
<title>Node8&#45;&gt;Node9</title>
<g id="a_edge14_Node000008_Node000009"><a xlink:title=" ">
<path fill="none" stroke="#63b8ff" d="M459.73,-111.59C453.47,-104.24 444.57,-93.8 436.96,-84.87"/>
<polygon fill="#63b8ff" stroke="#63b8ff" points="439.8,-82.79 430.65,-77.45 434.47,-87.33 439.8,-82.79"/>
</a>
</g>
</g>
<!-- Node9&#45;&gt;Node2 -->
<g id="edge15_Node000009_Node000002" class="edge">
<title>Node9&#45;&gt;Node2</title>
<g id="a_edge15_Node000009_Node000002"><a xlink:title=" ">
<path fill="none" stroke="#63b8ff" d="M405.55,-55.59C391.5,-47.44 370.91,-35.48 354.59,-26"/>
<polygon fill="#63b8ff" stroke="#63b8ff" points="356.79,-23.23 346.38,-21.24 353.27,-29.29 356.79,-23.23"/>
</a>
</g>
</g>
<!-- Node10&#45;&gt;Node2 -->
<g id="edge17_Node000010_Node000002" class="edge">
<title>Node10&#45;&gt;Node2</title>
<g id="a_edge17_Node000010_Node000002"><a xlink:title=" ">
<path fill="none" stroke="#63b8ff" d="M465.79,-56.68C439.62,-47.96 398.16,-34.14 367.68,-23.98"/>
<polygon fill="#63b8ff" stroke="#63b8ff" points="369.03,-20.74 358.44,-20.9 366.82,-27.38 369.03,-20.74"/>
</a>
</g>
</g>
<!-- Node11&#45;&gt;Node2 -->
<g id="edge19_Node000011_Node000002" class="edge">
<title>Node11&#45;&gt;Node2</title>
<g id="a_edge19_Node000011_Node000002"><a xlink:title=" ">
<path fill="none" stroke="#63b8ff" d="M586.78,-111.85C575.42,-97.6 551.46,-70.27 524.75,-56 475.03,-29.44 410.07,-18.48 368.86,-14.01"/>
<polygon fill="#63b8ff" stroke="#63b8ff" points="369.45,-10.55 359.16,-13.04 368.76,-17.52 369.45,-10.55"/>
</a>
</g>
</g>
<!-- Node11&#45;&gt;Node10 -->
<g id="edge21_Node000011_Node000010" class="edge">
<title>Node11&#45;&gt;Node10</title>
<g id="a_edge21_Node000011_Node000010"><a xlink:title=" ">
<path fill="none" stroke="#63b8ff" d="M575.8,-111.59C560.1,-103.36 537.01,-91.26 518.86,-81.74"/>
<polygon fill="#63b8ff" stroke="#63b8ff" points="520.65,-78.73 510.17,-77.18 517.4,-84.93 520.65,-78.73"/>
</a>
</g>
</g>
<!-- Node12 -->
<g id="Node000012" class="node">
<title>Node12</title>
<g id="a_Node000012"><a xlink:title=" ">
<polygon fill="#e0e0e0" stroke="#999999" points="649.87,-76 571.62,-76 571.62,-56 649.87,-56 649.87,-76"/>
<text xml:space="preserve" text-anchor="middle" x="610.75" y="-62.5" font-family="Helvetica,sans-Serif" font-size="10.00">ArduinoJson.h</text>
</a>
</g>
</g>
<!-- Node11&#45;&gt;Node12 -->
<g id="edge20_Node000011_Node000012" class="edge">
<title>Node11&#45;&gt;Node12</title>
<g id="a_edge20_Node000011_Node000012"><a xlink:title=" ">
<path fill="none" stroke="#63b8ff" d="M596.71,-111.59C598.83,-104.86 601.76,-95.53 604.4,-87.15"/>
<polygon fill="#63b8ff" stroke="#63b8ff" points="607.7,-88.33 607.36,-77.74 601.02,-86.23 607.7,-88.33"/>
</a>
</g>
</g>
<!-- Node13 -->
<g id="Node000013" class="node">
<title>Node13</title>
<g id="a_Node000013"><a xlink:title=" ">
<polygon fill="#e0e0e0" stroke="#999999" points="724,-76 667.5,-76 667.5,-56 724,-56 724,-76"/>
<text xml:space="preserve" text-anchor="middle" x="695.75" y="-62.5" font-family="Helvetica,sans-Serif" font-size="10.00">WiFiS3.h</text>
</a>
</g>
</g>
<!-- Node11&#45;&gt;Node13 -->
<g id="edge22_Node000011_Node000013" class="edge">
<title>Node11&#45;&gt;Node13</title>
<g id="a_edge22_Node000011_Node000013"><a xlink:title=" ">
<path fill="none" stroke="#63b8ff" d="M611.51,-111.59C627.07,-103.36 649.93,-91.26 667.91,-81.74"/>
<polygon fill="#63b8ff" stroke="#63b8ff" points="669.3,-84.96 676.5,-77.19 666.03,-78.77 669.3,-84.96"/>
</a>
</g>
</g>
<!-- Node14 -->
<g id="Node000014" class="node">
<title>Node14</title>
<g id="a_Node000014"><a xlink:title=" ">
<polygon fill="#e0e0e0" stroke="#999999" points="825.87,-76 741.62,-76 741.62,-56 825.87,-56 825.87,-76"/>
<text xml:space="preserve" text-anchor="middle" x="783.75" y="-62.5" font-family="Helvetica,sans-Serif" font-size="10.00">PubSubClient.h</text>
</a>
</g>
</g>
<!-- Node11&#45;&gt;Node14 -->
<g id="edge23_Node000011_Node000014" class="edge">
<title>Node11&#45;&gt;Node14</title>
<g id="a_edge23_Node000011_Node000014"><a xlink:title=" ">
<path fill="none" stroke="#63b8ff" d="M619.77,-113.6C650.53,-104.86 702.23,-90.17 739.36,-79.61"/>
<polygon fill="#63b8ff" stroke="#63b8ff" points="740.26,-83 748.92,-76.9 738.35,-76.26 740.26,-83"/>
</a>
</g>
</g>
</g>
</svg>
