<?xml version="1.0" encoding="UTF-8" standalone="no"?>
<!DOCTYPE svg PUBLIC "-//W3C//DTD SVG 1.1//EN"
 "http://www.w3.org/Graphics/SVG/1.1/DTD/svg11.dtd">
<!-- Generated by graphviz version 14.1.2 (20260124.0452)
 -->
<!-- Title: MQTT.h Pages: 1 -->
<svg width="299pt" height="84pt"
 viewBox="0.00 0.00 299.00 84.00" xmlns="http://www.w3.org/2000/svg" xmlns:xlink="http://www.w3.org/1999/xlink">
<g id="graph0" class="graph" transform="scale(1 1) rotate(0) translate(4 80)">
<title>MQTT.h</title>
<!-- Node1 -->
<g id="Node000001" class="node">
<title>Node1</title>
<g id="a_Node000001"><a xlink:title=" ">
<polygon fill="#999999" stroke="#666666" points="166.88,-76 115.62,-76 115.62,-56 166.88,-56 166.88,-76"/>
<text xml:space="preserve" text-anchor="middle" x="141.25" y="-62.5" font-family="Helvetica,sans-Serif" font-size="10.00">MQTT.h</text>
</a>
</g>
</g>
<!-- Node2 -->
<g id="Node000002" class="node">
<title>Node2</title>
<g id="a_Node000002"><a xlink:href="_lcd_controller_8cpp.html" target="_top" xlink:title="Implementation of LCD display controller for garage control system.">
<polygon fill="white" stroke="#666666" points="92.5,-20 0,-20 0,0 92.5,0 92.5,-20"/>
<text xml:space="preserve" text-anchor="middle" x="46.25" y="-6.5" font-family="Helvetica,sans-Serif" font-size="10.00">LcdController.cpp</text>
</a>
</g>
</g>
<!-- Node1&#45;&gt;Node2 -->
<g id="edge1_Node000001_Node000002" class="edge">
<title>Node1&#45;&gt;Node2</title>
<g id="a_edge1_Node000001_Node000002"><a xlink:title=" ">
<path fill="none" stroke="#63b8ff" d="M115,-50.08C98.35,-40.62 77.32,-28.66 62.93,-20.48"/>
<polygon fill="#63b8ff" stroke="#63b8ff" points="112.96,-52.95 123.39,-54.85 116.42,-46.86 112.96,-52.95"/>
</a>
</g>
</g>
<!-- Node3 -->
<g id="Node000003" class="node">
<title>Node3</title>
<g id="a_Node000003"><a xlink:href="_m_q_t_t_8cpp.html" target="_top" xlink:title="MQTTManager implementation – compiled only when ENABLE_WIFI is 1.">
<polygon fill="white" stroke="#666666" points="172.12,-20 110.38,-20 110.38,0 172.12,0 172.12,-20"/>
<text xml:space="preserve" text-anchor="middle" x="141.25" y="-6.5" font-family="Helvetica,sans-Serif" font-size="10.00">MQTT.cpp</text>
</a>
</g>
</g>
<!-- Node1&#45;&gt;Node3 -->
<g id="edge2_Node000001_Node000003" class="edge">
<title>Node1&#45;&gt;Node3</title>
<g id="a_edge2_Node000001_Node000003"><a xlink:title=" ">
<path fill="none" stroke="#63b8ff" d="M141.25,-44.13C141.25,-35.9 141.25,-26.85 141.25,-20.3"/>
<polygon fill="#63b8ff" stroke="#63b8ff" points="137.75,-44.08 141.25,-54.08 144.75,-44.08 137.75,-44.08"/>
</a>
</g>
</g>
<!-- Node4 -->
<g id="Node000004" class="node">
<title>Node4</title>
<g id="a_Node000004"><a xlink:href="_menu_controller_8cpp.html" target="_top" xlink:title="Button debounce approach ──────────────────────── Each button has its own lastPressTime and lastPinSt...">
<polygon fill="white" stroke="#666666" points="290.62,-20 189.88,-20 189.88,0 290.62,0 290.62,-20"/>
<text xml:space="preserve" text-anchor="middle" x="240.25" y="-6.5" font-family="Helvetica,sans-Serif" font-size="10.00">MenuController.cpp</text>
</a>
</g>
</g>
<!-- Node1&#45;&gt;Node4 -->
<g id="edge3_Node000001_Node000004" class="edge">
<title>Node1&#45;&gt;Node4</title>
<g id="a_edge3_Node000001_Node000004"><a xlink:title=" ">
<path fill="none" stroke="#63b8ff" d="M168.11,-50.35C185.54,-40.84 207.73,-28.74 222.87,-20.48"/>
<polygon fill="#63b8ff" stroke="#63b8ff" points="166.93,-47.01 159.82,-54.87 170.28,-53.15 166.93,-47.01"/>
</a>
</g>
</g>
</g>
</svg>
