<?xml version="1.0" encoding="UTF-8" standalone="no"?>
<!DOCTYPE svg PUBLIC "-//W3C//DTD SVG 1.1//EN"
 "http://www.w3.org/Graphics/SVG/1.1/DTD/svg11.dtd">
<!-- Generated by graphviz version 14.1.2 (20260124.0452)
 -->
<!-- Title: MQTT.cpp Pages: 1 -->
<svg width="368pt" height="196pt"
 viewBox="0.00 0.00 368.00 196.00" xmlns="http://www.w3.org/2000/svg" xmlns:xlink="http://www.w3.org/1999/xlink">

<svg id="main" version="1.1" xmlns="http://www.w3.org/2000/svg" xmlns:xlink="http://www.w3.org/1999/xlink" xml:space="preserve">

<style type="text/css"><![CDATA[
.node, .edge {opacity: 0.7;}
.node.selected, .edge.selected {opacity: 1;}
.edge:hover path { stroke: red; }
.edge:hover polygon { stroke: red; fill: red; }
]]></style>
<script type="application/ecmascript" xlink:href="svg.min.js"/>
<svg id="graph" class="graph">
<g id="graph0" class="graph" transform="scale(1 1) rotate(0) translate(4 192)">
<title>MQTT.cpp</title>
<!-- Node1 -->
<g id="Node000001" class="node">
<title>Node1</title>
<g id="a_Node000001"><a xlink:title="MQTTManager implementation – compiled only when ENABLE_WIFI is 1.">
<polygon fill="#999999" stroke="#666666" points="234,-188 172.25,-188 172.25,-168 234,-168 234,-188"/>
<text xml:space="preserve" text-anchor="middle" x="203.12" y="-174.5" font-family="Helvetica,sans-Serif" font-size="10.00">MQTT.cpp</text>
</a>
</g>
</g>
<!-- Node2 -->
<g id="Node000002" class="node">
<title>Node2</title>
<g id="a_Node000002"><a xlink:title=" ">
<polygon fill="#e0e0e0" stroke="#999999" points="78.25,-76 0,-76 0,-56 78.25,-56 78.25,-76"/>
<text xml:space="preserve" text-anchor="middle" x="39.12" y="-62.5" font-family="Helvetica,sans-Serif" font-size="10.00">ArduinoJson.h</text>
</a>
</g>
</g>
<!-- Node1&#45;&gt;Node2 -->
<g id="edge1_Node000001_Node000002" class="edge">
<title>Node1&#45;&gt;Node2</title>
<g id="a_edge1_Node000001_Node000002"><a xlink:title=" ">
<path fill="none" stroke="#63b8ff" d="M189.14,-167.62C160.94,-148.71 97,-105.82 62.4,-82.61"/>
<polygon fill="#63b8ff" stroke="#63b8ff" points="64.58,-79.86 54.33,-77.2 60.68,-85.68 64.58,-79.86"/>
</a>
</g>
</g>
<!-- Node3 -->
<g id="Node000003" class="node">
<title>Node3</title>
<g id="a_Node000003"><a xlink:href="_utility_8h.html" target="_top" xlink:title="Utility functions for timing, version information, and build configuration.">
<polygon fill="white" stroke="#666666" points="359.62,-76 310.62,-76 310.62,-56 359.62,-56 359.62,-76"/>
<text xml:space="preserve" text-anchor="middle" x="335.12" y="-62.5" font-family="Helvetica,sans-Serif" font-size="10.00">Utility.h</text>
</a>
</g>
</g>
<!-- Node1&#45;&gt;Node3 -->
<g id="edge2_Node000001_Node000003" class="edge">
<title>Node1&#45;&gt;Node3</title>
<g id="a_edge2_Node000001_Node000003"><a xlink:title=" ">
<path fill="none" stroke="#63b8ff" d="M208.09,-167.56C215.66,-153.9 231.21,-128.45 250.12,-112 264.9,-99.15 283.99,-88.62 300.32,-80.99"/>
<polygon fill="#63b8ff" stroke="#63b8ff" points="301.51,-84.3 309.21,-77.02 298.65,-77.91 301.51,-84.3"/>
</a>
</g>
</g>
<!-- Node5 -->
<g id="Node000005" class="node">
<title>Node5</title>
<g id="a_Node000005"><a xlink:href="_m_q_t_t_8h.html" target="_top" xlink:title=" ">
<polygon fill="white" stroke="#666666" points="201.75,-132 150.5,-132 150.5,-112 201.75,-112 201.75,-132"/>
<text xml:space="preserve" text-anchor="middle" x="176.12" y="-118.5" font-family="Helvetica,sans-Serif" font-size="10.00">MQTT.h</text>
</a>
</g>
</g>
<!-- Node1&#45;&gt;Node5 -->
<g id="edge4_Node000001_Node000005" class="edge">
<title>Node1&#45;&gt;Node5</title>
<g id="a_edge4_Node000001_Node000005"><a xlink:title=" ">
<path fill="none" stroke="#63b8ff" d="M198.42,-167.59C194.98,-160.7 190.18,-151.1 185.91,-142.57"/>
<polygon fill="#63b8ff" stroke="#63b8ff" points="189.05,-141.03 181.45,-133.65 182.79,-144.16 189.05,-141.03"/>
</a>
</g>
</g>
<!-- Node8 -->
<g id="Node000008" class="node">
<title>Node8</title>
<g id="a_Node000008"><a xlink:title=" ">
<polygon fill="#e0e0e0" stroke="#999999" points="349.62,-132 258.62,-132 258.62,-112 349.62,-112 349.62,-132"/>
<text xml:space="preserve" text-anchor="middle" x="304.12" y="-118.5" font-family="Helvetica,sans-Serif" font-size="10.00">../config/Config.h</text>
</a>
</g>
</g>
<!-- Node1&#45;&gt;Node8 -->
<g id="edge10_Node000001_Node000008" class="edge">
<title>Node1&#45;&gt;Node8</title>
<g id="a_edge10_Node000001_Node000008"><a xlink:title=" ">
<path fill="none" stroke="#63b8ff" d="M220.72,-167.59C236.05,-159.4 258.54,-147.37 276.31,-137.87"/>
<polygon fill="#63b8ff" stroke="#63b8ff" points="277.89,-140.99 285.06,-133.19 274.59,-134.82 277.89,-140.99"/>
</a>
</g>
</g>
<!-- Node4 -->
<g id="Node000004" class="node">
<title>Node4</title>
<g id="a_Node000004"><a xlink:title=" ">
<polygon fill="#e0e0e0" stroke="#999999" points="248.75,-20 191.5,-20 191.5,0 248.75,0 248.75,-20"/>
<text xml:space="preserve" text-anchor="middle" x="220.12" y="-6.5" font-family="Helvetica,sans-Serif" font-size="10.00">Arduino.h</text>
</a>
</g>
</g>
<!-- Node3&#45;&gt;Node4 -->
<g id="edge3_Node000003_Node000004" class="edge">
<title>Node3&#45;&gt;Node4</title>
<g id="a_edge3_Node000003_Node000004"><a xlink:title=" ">
<path fill="none" stroke="#63b8ff" d="M315.09,-55.59C297.31,-47.24 271.06,-34.92 250.66,-25.34"/>
<polygon fill="#63b8ff" stroke="#63b8ff" points="252.22,-22.21 241.68,-21.12 249.25,-28.54 252.22,-22.21"/>
</a>
</g>
</g>
<!-- Node5&#45;&gt;Node2 -->
<g id="edge6_Node000005_Node000002" class="edge">
<title>Node5&#45;&gt;Node2</title>
<g id="a_edge6_Node000005_Node000002"><a xlink:title=" ">
<path fill="none" stroke="#63b8ff" d="M152.26,-111.59C130.59,-103.05 98.36,-90.35 73.83,-80.68"/>
<polygon fill="#63b8ff" stroke="#63b8ff" points="75.17,-77.45 64.58,-77.03 72.6,-83.96 75.17,-77.45"/>
</a>
</g>
</g>
<!-- Node5&#45;&gt;Node3 -->
<g id="edge7_Node000005_Node000003" class="edge">
<title>Node5&#45;&gt;Node3</title>
<g id="a_edge7_Node000005_Node000003"><a xlink:title=" ">
<path fill="none" stroke="#63b8ff" d="M202.02,-112.2C228.55,-103.19 269.99,-89.12 299.58,-79.07"/>
<polygon fill="#63b8ff" stroke="#63b8ff" points="300.51,-82.45 308.85,-75.92 298.26,-75.83 300.51,-82.45"/>
</a>
</g>
</g>
<!-- Node5&#45;&gt;Node4 -->
<g id="edge5_Node000005_Node000004" class="edge">
<title>Node5&#45;&gt;Node4</title>
<g id="a_edge5_Node000005_Node000004"><a xlink:title=" ">
<path fill="none" stroke="#63b8ff" d="M159.33,-111.55C139.81,-99.28 111.86,-76.97 125.12,-56 137.31,-36.74 160.21,-25.57 180.48,-19.17"/>
<polygon fill="#63b8ff" stroke="#63b8ff" points="181.25,-22.59 189.92,-16.5 179.35,-15.85 181.25,-22.59"/>
</a>
</g>
</g>
<!-- Node6 -->
<g id="Node000006" class="node">
<title>Node6</title>
<g id="a_Node000006"><a xlink:title=" ">
<polygon fill="#e0e0e0" stroke="#999999" points="292.38,-76 235.88,-76 235.88,-56 292.38,-56 292.38,-76"/>
<text xml:space="preserve" text-anchor="middle" x="264.12" y="-62.5" font-family="Helvetica,sans-Serif" font-size="10.00">WiFiS3.h</text>
</a>
</g>
</g>
<!-- Node5&#45;&gt;Node6 -->
<g id="edge8_Node000005_Node000006" class="edge">
<title>Node5&#45;&gt;Node6</title>
<g id="a_edge8_Node000005_Node000006"><a xlink:title=" ">
<path fill="none" stroke="#63b8ff" d="M191.45,-111.59C204.62,-103.51 223.86,-91.71 239.23,-82.27"/>
<polygon fill="#63b8ff" stroke="#63b8ff" points="240.69,-85.48 247.39,-77.27 237.03,-79.52 240.69,-85.48"/>
</a>
</g>
</g>
<!-- Node7 -->
<g id="Node000007" class="node">
<title>Node7</title>
<g id="a_Node000007"><a xlink:title=" ">
<polygon fill="#e0e0e0" stroke="#999999" points="218.25,-76 134,-76 134,-56 218.25,-56 218.25,-76"/>
<text xml:space="preserve" text-anchor="middle" x="176.12" y="-62.5" font-family="Helvetica,sans-Serif" font-size="10.00">PubSubClient.h</text>
</a>
</g>
</g>
<!-- Node5&#45;&gt;Node7 -->
<g id="edge9_Node000005_Node000007" class="edge">
<title>Node5&#45;&gt;Node7</title>
<g id="a_edge9_Node000005_Node000007"><a xlink:title=" ">
<path fill="none" stroke="#63b8ff" d="M176.12,-111.59C176.12,-105.01 176.12,-95.96 176.12,-87.73"/>
<polygon fill="#63b8ff" stroke="#63b8ff" points="179.63,-87.81 176.13,-77.81 172.63,-87.81 179.63,-87.81"/>
</a>
</g>
</g>
</g>
</svg>
</svg>

<style type='text/css'>
<![CDATA[
[data-mouse-over-selected='false'] { opacity: 0.7; }
[data-mouse-over-selected='true']  { opacity: 1.0; }
]]>
</style>
<script type="application/ecmascript"><![CDATA[
document.addEventListener('DOMContentLoaded', (event) => {
  highlightEdges();
  highlightAdjacentNodes();
});
]]></script>
</svg>
