<?xml version="1.0" encoding="UTF-8" standalone="no"?>
<!DOCTYPE svg PUBLIC "-//W3C//DTD SVG 1.1//EN"
 "http://www.w3.org/Graphics/SVG/1.1/DTD/svg11.dtd">
<!-- Generated by graphviz version 14.1.2 (20260124.0452)
 -->
<!-- Title: MQTT.h Pages: 1 -->
<svg width="343pt" height="140pt"
 viewBox="0.00 0.00 343.00 140.00" xmlns="http://www.w3.org/2000/svg" xmlns:xlink="http://www.w3.org/1999/xlink">

<svg id="main" version="1.1" xmlns="http://www.w3.org/2000/svg" xmlns:xlink="http://www.w3.org/1999/xlink" xml:space="preserve">

<style type="text/css"><![CDATA[
.node, .edge {opacity: 0.7;}
.node.selected, .edge.selected {opacity: 1;}
.edge:hover path { stroke: red; }
.edge:hover polygon { stroke: red; fill: red; }
]]></style>
<script type="application/ecmascript" xlink:href="svg.min.js"/>
<svg id="graph" class="graph">
<g id="graph0" class="graph" transform="scale(1 1) rotate(0) translate(4 136)">
<title>MQTT.h</title>
<!-- Node1 -->
<g id="Node000001" class="node">
<title>Node1</title>
<g id="a_Node000001"><a xlink:title=" ">
<polygon fill="#999999" stroke="#666666" points="159.9,-132 108.65,-132 108.65,-112 159.9,-112 159.9,-132"/>
<text xml:space="preserve" text-anchor="middle" x="134.28" y="-118.5" font-family="Helvetica,sans-Serif" font-size="10.00">MQTT.h</text>
</a>
</g>
</g>
<!-- Node2 -->
<g id="Node000002" class="node">
<title>Node2</title>
<g id="a_Node000002"><a xlink:title=" ">
<polygon fill="#e0e0e0" stroke="#999999" points="87.9,-20 30.65,-20 30.65,0 87.9,0 87.9,-20"/>
<text xml:space="preserve" text-anchor="middle" x="59.28" y="-6.5" font-family="Helvetica,sans-Serif" font-size="10.00">Arduino.h</text>
</a>
</g>
</g>
<!-- Node1&#45;&gt;Node2 -->
<g id="edge1_Node000001_Node000002" class="edge">
<title>Node1&#45;&gt;Node2</title>
<g id="a_edge1_Node000001_Node000002"><a xlink:title=" ">
<path fill="none" stroke="#63b8ff" d="M108.37,-120.39C77.72,-118.12 27.9,-109.17 4.28,-76 -8.41,-58.18 11.95,-39.24 31.39,-26.43"/>
<polygon fill="#63b8ff" stroke="#63b8ff" points="33.05,-29.52 39.72,-21.29 29.37,-23.57 33.05,-29.52"/>
</a>
</g>
</g>
<!-- Node3 -->
<g id="Node000003" class="node">
<title>Node3</title>
<g id="a_Node000003"><a xlink:title=" ">
<polygon fill="#e0e0e0" stroke="#999999" points="91.4,-76 13.15,-76 13.15,-56 91.4,-56 91.4,-76"/>
<text xml:space="preserve" text-anchor="middle" x="52.28" y="-62.5" font-family="Helvetica,sans-Serif" font-size="10.00">ArduinoJson.h</text>
</a>
</g>
</g>
<!-- Node1&#45;&gt;Node3 -->
<g id="edge2_Node000001_Node000003" class="edge">
<title>Node1&#45;&gt;Node3</title>
<g id="a_edge2_Node000001_Node000003"><a xlink:title=" ">
<path fill="none" stroke="#63b8ff" d="M120,-111.59C107.84,-103.59 90.14,-91.93 75.88,-82.54"/>
<polygon fill="#63b8ff" stroke="#63b8ff" points="78.21,-79.89 67.94,-77.31 74.36,-85.73 78.21,-79.89"/>
</a>
</g>
</g>
<!-- Node4 -->
<g id="Node000004" class="node">
<title>Node4</title>
<g id="a_Node000004"><a xlink:href="_utility_8h.html" target="_top" xlink:title="Utility functions for timing, version information, and build configuration.">
<polygon fill="white" stroke="#666666" points="158.78,-76 109.78,-76 109.78,-56 158.78,-56 158.78,-76"/>
<text xml:space="preserve" text-anchor="middle" x="134.28" y="-62.5" font-family="Helvetica,sans-Serif" font-size="10.00">Utility.h</text>
</a>
</g>
</g>
<!-- Node1&#45;&gt;Node4 -->
<g id="edge3_Node000001_Node000004" class="edge">
<title>Node1&#45;&gt;Node4</title>
<g id="a_edge3_Node000001_Node000004"><a xlink:title=" ">
<path fill="none" stroke="#63b8ff" d="M134.28,-111.59C134.28,-105.01 134.28,-95.96 134.28,-87.73"/>
<polygon fill="#63b8ff" stroke="#63b8ff" points="137.78,-87.81 134.28,-77.81 130.78,-87.81 137.78,-87.81"/>
</a>
</g>
</g>
<!-- Node5 -->
<g id="Node000005" class="node">
<title>Node5</title>
<g id="a_Node000005"><a xlink:title=" ">
<polygon fill="#e0e0e0" stroke="#999999" points="233.53,-76 177.03,-76 177.03,-56 233.53,-56 233.53,-76"/>
<text xml:space="preserve" text-anchor="middle" x="205.28" y="-62.5" font-family="Helvetica,sans-Serif" font-size="10.00">WiFiS3.h</text>
</a>
</g>
</g>
<!-- Node1&#45;&gt;Node5 -->
<g id="edge5_Node000001_Node000005" class="edge">
<title>Node1&#45;&gt;Node5</title>
<g id="a_edge5_Node000001_Node000005"><a xlink:title=" ">
<path fill="none" stroke="#63b8ff" d="M146.65,-111.59C156.93,-103.77 171.8,-92.46 183.99,-83.19"/>
<polygon fill="#63b8ff" stroke="#63b8ff" points="186.01,-86.05 191.85,-77.21 181.77,-80.48 186.01,-86.05"/>
</a>
</g>
</g>
<!-- Node6 -->
<g id="Node000006" class="node">
<title>Node6</title>
<g id="a_Node000006"><a xlink:title=" ">
<polygon fill="#e0e0e0" stroke="#999999" points="335.4,-76 251.15,-76 251.15,-56 335.4,-56 335.4,-76"/>
<text xml:space="preserve" text-anchor="middle" x="293.28" y="-62.5" font-family="Helvetica,sans-Serif" font-size="10.00">PubSubClient.h</text>
</a>
</g>
</g>
<!-- Node1&#45;&gt;Node6 -->
<g id="edge6_Node000001_Node000006" class="edge">
<title>Node1&#45;&gt;Node6</title>
<g id="a_edge6_Node000001_Node000006"><a xlink:title=" ">
<path fill="none" stroke="#63b8ff" d="M160.18,-112.2C185.85,-103.49 225.48,-90.03 254.83,-80.06"/>
<polygon fill="#63b8ff" stroke="#63b8ff" points="255.74,-83.44 264.09,-76.91 253.49,-76.82 255.74,-83.44"/>
</a>
</g>
</g>
<!-- Node4&#45;&gt;Node2 -->
<g id="edge4_Node000004_Node000002" class="edge">
<title>Node4&#45;&gt;Node2</title>
<g id="a_edge4_Node000004_Node000002"><a xlink:title=" ">
<path fill="none" stroke="#63b8ff" d="M121.22,-55.59C110.31,-47.74 94.53,-36.38 81.62,-27.09"/>
<polygon fill="#63b8ff" stroke="#63b8ff" points="83.83,-24.37 73.67,-21.36 79.74,-30.05 83.83,-24.37"/>
</a>
</g>
</g>
</g>
</svg>
</svg>

<style type='text/css'>
<![CDATA[
[data-mouse-over-selected='false'] { opacity: 0.7; }
[data-mouse-over-selected='true']  { opacity: 1.0; }
]]>
</style>
<script type="application/ecmascript"><![CDATA[
document.addEventListener('DOMContentLoaded', (event) => {
  highlightEdges();
  highlightAdjacentNodes();
});
]]></script>
</svg>
