<?xml version="1.0" encoding="UTF-8" standalone="no"?>
<!DOCTYPE svg PUBLIC "-//W3C//DTD SVG 1.1//EN"
 "http://www.w3.org/Graphics/SVG/1.1/DTD/svg11.dtd">
<!-- Generated by graphviz version 14.1.2 (20260124.0452)
 -->
<!-- Title: MenuController.h Pages: 1 -->
<svg width="220pt" height="84pt"
 viewBox="0.00 0.00 220.00 84.00" xmlns="http://www.w3.org/2000/svg" xmlns:xlink="http://www.w3.org/1999/xlink">
<g id="graph0" class="graph" transform="scale(1 1) rotate(0) translate(4 80)">
<title>MenuController.h</title>
<!-- Node1 -->
<g id="Node000001" class="node">
<title>Node1</title>
<g id="a_Node000001"><a xlink:title="Menu navigation controller with debounced button input.">
<polygon fill="#999999" stroke="#666666" points="148.38,-76 58.12,-76 58.12,-56 148.38,-56 148.38,-76"/>
<text xml:space="preserve" text-anchor="middle" x="103.25" y="-62.5" font-family="Helvetica,sans-Serif" font-size="10.00">MenuController.h</text>
</a>
</g>
</g>
<!-- Node2 -->
<g id="Node000002" class="node">
<title>Node2</title>
<g id="a_Node000002"><a xlink:href="_lcd_controller_8cpp.html" target="_top" xlink:title="Implementation of LCD display controller for garage control system.">
<polygon fill="white" stroke="#666666" points="92.5,-20 0,-20 0,0 92.5,0 92.5,-20"/>
<text xml:space="preserve" text-anchor="middle" x="46.25" y="-6.5" font-family="Helvetica,sans-Serif" font-size="10.00">LcdController.cpp</text>
</a>
</g>
</g>
<!-- Node1&#45;&gt;Node2 -->
<g id="edge1_Node000001_Node000002" class="edge">
<title>Node1&#45;&gt;Node2</title>
<g id="a_edge1_Node000001_Node000002"><a xlink:title=" ">
<path fill="none" stroke="#63b8ff" d="M85.14,-47.85C75.51,-38.72 64.04,-27.86 56.06,-20.3"/>
<polygon fill="#63b8ff" stroke="#63b8ff" points="82.56,-50.22 92.22,-54.55 87.37,-45.13 82.56,-50.22"/>
</a>
</g>
</g>
<!-- Node3 -->
<g id="Node000003" class="node">
<title>Node3</title>
<g id="a_Node000003"><a xlink:href="_menu_controller_8cpp.html" target="_top" xlink:title="Button debounce approach ──────────────────────── Each button has its own lastPressTime and lastPinSt...">
<polygon fill="white" stroke="#666666" points="211.62,-20 110.88,-20 110.88,0 211.62,0 211.62,-20"/>
<text xml:space="preserve" text-anchor="middle" x="161.25" y="-6.5" font-family="Helvetica,sans-Serif" font-size="10.00">MenuController.cpp</text>
</a>
</g>
</g>
<!-- Node1&#45;&gt;Node3 -->
<g id="edge2_Node000001_Node000003" class="edge">
<title>Node1&#45;&gt;Node3</title>
<g id="a_edge2_Node000001_Node000003"><a xlink:title=" ">
<path fill="none" stroke="#63b8ff" d="M121.67,-47.85C131.48,-38.72 143.15,-27.86 151.26,-20.3"/>
<polygon fill="#63b8ff" stroke="#63b8ff" points="119.39,-45.19 114.46,-54.56 124.16,-50.31 119.39,-45.19"/>
</a>
</g>
</g>
</g>
</svg>
