<?xml version="1.0" encoding="UTF-8" standalone="no"?>
<!DOCTYPE svg PUBLIC "-//W3C//DTD SVG 1.1//EN"
 "http://www.w3.org/Graphics/SVG/1.1/DTD/svg11.dtd">
<!-- Generated by graphviz version 14.1.2 (20260124.0452)
 -->
<!-- Title: MenuController.cpp Pages: 1 -->
<svg width="735pt" height="196pt"
 viewBox="0.00 0.00 735.00 196.00" xmlns="http://www.w3.org/2000/svg" xmlns:xlink="http://www.w3.org/1999/xlink">
<g id="graph0" class="graph" transform="scale(1 1) rotate(0) translate(4 192)">
<title>MenuController.cpp</title>
<!-- Node1 -->
<g id="Node000001" class="node">
<title>Node1</title>
<g id="a_Node000001"><a xlink:title="Button debounce approach ──────────────────────── Each button has its own lastPressTime and lastPinSt...">
<polygon fill="#999999" stroke="#666666" points="288.09,-188 187.34,-188 187.34,-168 288.09,-168 288.09,-188"/>
<text xml:space="preserve" text-anchor="middle" x="237.72" y="-174.5" font-family="Helvetica,sans-Serif" font-size="10.00">MenuController.cpp</text>
</a>
</g>
</g>
<!-- Node2 -->
<g id="Node000002" class="node">
<title>Node2</title>
<g id="a_Node000002"><a xlink:title=" ">
<polygon fill="#e0e0e0" stroke="#999999" points="301.34,-20 244.09,-20 244.09,0 301.34,0 301.34,-20"/>
<text xml:space="preserve" text-anchor="middle" x="272.72" y="-6.5" font-family="Helvetica,sans-Serif" font-size="10.00">Arduino.h</text>
</a>
</g>
</g>
<!-- Node1&#45;&gt;Node2 -->
<g id="edge1_Node000001_Node000002" class="edge">
<title>Node1&#45;&gt;Node2</title>
<g id="a_edge1_Node000001_Node000002"><a xlink:title=" ">
<path fill="none" stroke="#63b8ff" d="M187.06,-174.58C125.36,-170.44 26.51,-159.59 3.72,-132 -1.94,-125.15 0.17,-120.15 3.72,-112 40.85,-26.54 167,-12.02 232.5,-10.42"/>
<polygon fill="#63b8ff" stroke="#63b8ff" points="232.15,-13.92 242.1,-10.28 232.05,-6.92 232.15,-13.92"/>
</a>
</g>
</g>
<!-- Node3 -->
<g id="Node000003" class="node">
<title>Node3</title>
<g id="a_Node000003"><a xlink:title=" ">
<polygon fill="#e0e0e0" stroke="#999999" points="114.84,-132 12.59,-132 12.59,-112 114.84,-112 114.84,-132"/>
<text xml:space="preserve" text-anchor="middle" x="63.72" y="-118.5" font-family="Helvetica,sans-Serif" font-size="10.00">LiquidCrystal_I2C.h</text>
</a>
</g>
</g>
<!-- Node1&#45;&gt;Node3 -->
<g id="edge2_Node000001_Node000003" class="edge">
<title>Node1&#45;&gt;Node3</title>
<g id="a_edge2_Node000001_Node000003"><a xlink:title=" ">
<path fill="none" stroke="#63b8ff" d="M207.41,-167.59C179.01,-158.78 136.35,-145.54 104.88,-135.78"/>
<polygon fill="#63b8ff" stroke="#63b8ff" points="106.29,-132.55 95.71,-132.93 104.22,-139.23 106.29,-132.55"/>
</a>
</g>
</g>
<!-- Node4 -->
<g id="Node000004" class="node">
<title>Node4</title>
<g id="a_Node000004"><a xlink:href="_menu_controller_8h.html" target="_top" xlink:title="Menu navigation controller with debounced button input.">
<polygon fill="white" stroke="#666666" points="162.84,-76 72.59,-76 72.59,-56 162.84,-56 162.84,-76"/>
<text xml:space="preserve" text-anchor="middle" x="117.72" y="-62.5" font-family="Helvetica,sans-Serif" font-size="10.00">MenuController.h</text>
</a>
</g>
</g>
<!-- Node1&#45;&gt;Node4 -->
<g id="edge3_Node000001_Node000004" class="edge">
<title>Node1&#45;&gt;Node4</title>
<g id="a_edge3_Node000001_Node000004"><a xlink:title=" ">
<path fill="none" stroke="#63b8ff" d="M216.37,-167.55C200.14,-159.65 177.91,-147.24 161.72,-132 147.62,-118.73 135.62,-100.18 127.73,-86.29"/>
<polygon fill="#63b8ff" stroke="#63b8ff" points="130.9,-84.78 123.05,-77.67 124.75,-88.13 130.9,-84.78"/>
</a>
</g>
</g>
<!-- Node5 -->
<g id="Node000005" class="node">
<title>Node5</title>
<g id="a_Node000005"><a xlink:href="_h_v_a_c_8h.html" target="_top" xlink:title="HVAC heating and cooling system control with temperature&#45;based switching.">
<polygon fill="white" stroke="#666666" points="222.72,-132 170.72,-132 170.72,-112 222.72,-112 222.72,-132"/>
<text xml:space="preserve" text-anchor="middle" x="196.72" y="-118.5" font-family="Helvetica,sans-Serif" font-size="10.00">HVAC.h</text>
</a>
</g>
</g>
<!-- Node1&#45;&gt;Node5 -->
<g id="edge5_Node000001_Node000005" class="edge">
<title>Node1&#45;&gt;Node5</title>
<g id="a_edge5_Node000001_Node000005"><a xlink:title=" ">
<path fill="none" stroke="#63b8ff" d="M230.57,-167.59C225.11,-160.39 217.39,-150.23 210.71,-141.43"/>
<polygon fill="#63b8ff" stroke="#63b8ff" points="213.53,-139.35 204.69,-133.5 207.95,-143.58 213.53,-139.35"/>
</a>
</g>
</g>
<!-- Node7 -->
<g id="Node000007" class="node">
<title>Node7</title>
<g id="a_Node000007"><a xlink:href="_garage_light_8h.html" target="_top" xlink:title="Garage light control with automatic timeout and motion&#45;based extension.">
<polygon fill="white" stroke="#666666" points="317.09,-132 240.34,-132 240.34,-112 317.09,-112 317.09,-132"/>
<text xml:space="preserve" text-anchor="middle" x="278.72" y="-118.5" font-family="Helvetica,sans-Serif" font-size="10.00">GarageLight.h</text>
</a>
</g>
</g>
<!-- Node1&#45;&gt;Node7 -->
<g id="edge9_Node000001_Node000007" class="edge">
<title>Node1&#45;&gt;Node7</title>
<g id="a_edge9_Node000001_Node000007"><a xlink:title=" ">
<path fill="none" stroke="#63b8ff" d="M244.86,-167.59C250.33,-160.39 258.04,-150.23 264.72,-141.43"/>
<polygon fill="#63b8ff" stroke="#63b8ff" points="267.48,-143.58 270.74,-133.5 261.91,-139.35 267.48,-143.58"/>
</a>
</g>
</g>
<!-- Node8 -->
<g id="Node000008" class="node">
<title>Node8</title>
<g id="a_Node000008"><a xlink:href="_garage_door_8h.html" target="_top" xlink:title="Garage door controller with state detection and automatic closing.">
<polygon fill="white" stroke="#666666" points="412.09,-132 335.34,-132 335.34,-112 412.09,-112 412.09,-132"/>
<text xml:space="preserve" text-anchor="middle" x="373.72" y="-118.5" font-family="Helvetica,sans-Serif" font-size="10.00">GarageDoor.h</text>
</a>
</g>
</g>
<!-- Node1&#45;&gt;Node8 -->
<g id="edge11_Node000001_Node000008" class="edge">
<title>Node1&#45;&gt;Node8</title>
<g id="a_edge11_Node000001_Node000008"><a xlink:title=" ">
<path fill="none" stroke="#63b8ff" d="M261.41,-167.59C282.92,-159.05 314.92,-146.35 339.26,-136.68"/>
<polygon fill="#63b8ff" stroke="#63b8ff" points="340.43,-139.98 348.44,-133.04 337.85,-133.48 340.43,-139.98"/>
</a>
</g>
</g>
<!-- Node9 -->
<g id="Node000009" class="node">
<title>Node9</title>
<g id="a_Node000009"><a xlink:href="_utility_8h.html" target="_top" xlink:title="Utility functions for timing, version information, and build configuration.">
<polygon fill="white" stroke="#666666" points="416.22,-76 367.22,-76 367.22,-56 416.22,-56 416.22,-76"/>
<text xml:space="preserve" text-anchor="middle" x="391.72" y="-62.5" font-family="Helvetica,sans-Serif" font-size="10.00">Utility.h</text>
</a>
</g>
</g>
<!-- Node1&#45;&gt;Node9 -->
<g id="edge13_Node000001_Node000009" class="edge">
<title>Node1&#45;&gt;Node9</title>
<g id="a_edge13_Node000001_Node000009"><a xlink:title=" ">
<path fill="none" stroke="#63b8ff" d="M288.35,-171.51C336.7,-165.11 404.52,-152.66 420.72,-132 431.97,-117.64 420.6,-98.22 408.95,-84.36"/>
<polygon fill="#63b8ff" stroke="#63b8ff" points="411.83,-82.32 402.51,-77.28 406.65,-87.03 411.83,-82.32"/>
</a>
</g>
</g>
<!-- Node10 -->
<g id="Node000010" class="node">
<title>Node10</title>
<g id="a_Node000010"><a xlink:href="_m_q_t_t_8h.html" target="_top" xlink:title=" ">
<polygon fill="white" stroke="#666666" points="531.34,-132 480.09,-132 480.09,-112 531.34,-112 531.34,-132"/>
<text xml:space="preserve" text-anchor="middle" x="505.72" y="-118.5" font-family="Helvetica,sans-Serif" font-size="10.00">MQTT.h</text>
</a>
</g>
</g>
<!-- Node1&#45;&gt;Node10 -->
<g id="edge15_Node000001_Node000010" class="edge">
<title>Node1&#45;&gt;Node10</title>
<g id="a_edge15_Node000001_Node000010"><a xlink:title=" ">
<path fill="none" stroke="#63b8ff" d="M284.7,-167.53C337.13,-156.97 420.85,-140.1 468.79,-130.44"/>
<polygon fill="#63b8ff" stroke="#63b8ff" points="469.29,-133.91 478.4,-128.5 467.91,-127.05 469.29,-133.91"/>
</a>
</g>
</g>
<!-- Node4&#45;&gt;Node2 -->
<g id="edge4_Node000004_Node000002" class="edge">
<title>Node4&#45;&gt;Node2</title>
<g id="a_edge4_Node000004_Node000002"><a xlink:title=" ">
<path fill="none" stroke="#63b8ff" d="M144.72,-55.59C169.68,-46.9 207.02,-33.89 234.94,-24.16"/>
<polygon fill="#63b8ff" stroke="#63b8ff" points="235.79,-27.57 244.08,-20.98 233.48,-20.96 235.79,-27.57"/>
</a>
</g>
</g>
<!-- Node5&#45;&gt;Node2 -->
<g id="edge6_Node000005_Node000002" class="edge">
<title>Node5&#45;&gt;Node2</title>
<g id="a_edge6_Node000005_Node000002"><a xlink:title=" ">
<path fill="none" stroke="#63b8ff" d="M196.5,-111.81C196.61,-98.46 198.47,-73.4 209.72,-56 217.76,-43.57 230.54,-33.5 242.5,-26.07"/>
<polygon fill="#63b8ff" stroke="#63b8ff" points="244.01,-29.24 250.92,-21.21 240.51,-23.18 244.01,-29.24"/>
</a>
</g>
</g>
<!-- Node6 -->
<g id="Node000006" class="node">
<title>Node6</title>
<g id="a_Node000006"><a xlink:href="_motion_8h.html" target="_top" xlink:title="PIR motion sensor with debouncing and electromagnetic interference rejection.">
<polygon fill="white" stroke="#666666" points="272.47,-76 218.97,-76 218.97,-56 272.47,-56 272.47,-76"/>
<text xml:space="preserve" text-anchor="middle" x="245.72" y="-62.5" font-family="Helvetica,sans-Serif" font-size="10.00">Motion.h</text>
</a>
</g>
</g>
<!-- Node5&#45;&gt;Node6 -->
<g id="edge7_Node000005_Node000006" class="edge">
<title>Node5&#45;&gt;Node6</title>
<g id="a_edge7_Node000005_Node000006"><a xlink:title=" ">
<path fill="none" stroke="#63b8ff" d="M205.25,-111.59C212,-104.16 221.6,-93.58 229.76,-84.58"/>
<polygon fill="#63b8ff" stroke="#63b8ff" points="232.13,-87.18 236.26,-77.42 226.95,-82.47 232.13,-87.18"/>
</a>
</g>
</g>
<!-- Node6&#45;&gt;Node2 -->
<g id="edge8_Node000006_Node000002" class="edge">
<title>Node6&#45;&gt;Node2</title>
<g id="a_edge8_Node000006_Node000002"><a xlink:title=" ">
<path fill="none" stroke="#63b8ff" d="M250.42,-55.59C253.86,-48.7 258.66,-39.1 262.93,-30.57"/>
<polygon fill="#63b8ff" stroke="#63b8ff" points="266.05,-32.16 267.39,-21.65 259.79,-29.03 266.05,-32.16"/>
</a>
</g>
</g>
<!-- Node7&#45;&gt;Node2 -->
<g id="edge10_Node000007_Node000002" class="edge">
<title>Node7&#45;&gt;Node2</title>
<g id="a_edge10_Node000007_Node000002"><a xlink:title=" ">
<path fill="none" stroke="#63b8ff" d="M279.99,-111.72C281.52,-99.09 283.68,-75.79 281.72,-56 280.91,-47.88 279.31,-39.05 277.68,-31.38"/>
<polygon fill="#63b8ff" stroke="#63b8ff" points="281.1,-30.67 275.46,-21.7 274.28,-32.23 281.1,-30.67"/>
</a>
</g>
</g>
<!-- Node8&#45;&gt;Node2 -->
<g id="edge12_Node000008_Node000002" class="edge">
<title>Node8&#45;&gt;Node2</title>
<g id="a_edge12_Node000008_Node000002"><a xlink:title=" ">
<path fill="none" stroke="#63b8ff" d="M365.1,-111.62C348.26,-93.27 310.7,-52.37 289.02,-28.75"/>
<polygon fill="#63b8ff" stroke="#63b8ff" points="291.67,-26.47 282.33,-21.47 286.51,-31.2 291.67,-26.47"/>
</a>
</g>
</g>
<!-- Node9&#45;&gt;Node2 -->
<g id="edge14_Node000009_Node000002" class="edge">
<title>Node9&#45;&gt;Node2</title>
<g id="a_edge14_Node000009_Node000002"><a xlink:title=" ">
<path fill="none" stroke="#63b8ff" d="M370.99,-55.59C352.5,-47.21 325.17,-34.8 304.02,-25.21"/>
<polygon fill="#63b8ff" stroke="#63b8ff" points="305.54,-22.05 294.98,-21.1 302.64,-28.42 305.54,-22.05"/>
</a>
</g>
</g>
<!-- Node10&#45;&gt;Node2 -->
<g id="edge16_Node000010_Node000002" class="edge">
<title>Node10&#45;&gt;Node2</title>
<g id="a_edge16_Node000010_Node000002"><a xlink:title=" ">
<path fill="none" stroke="#63b8ff" d="M496.75,-111.65C482.82,-97.62 454.54,-71.16 425.72,-56 389.71,-37.06 344.62,-25.04 312.75,-18.23"/>
<polygon fill="#63b8ff" stroke="#63b8ff" points="313.62,-14.84 303.13,-16.26 312.22,-21.69 313.62,-14.84"/>
</a>
</g>
</g>
<!-- Node10&#45;&gt;Node9 -->
<g id="edge18_Node000010_Node000009" class="edge">
<title>Node10&#45;&gt;Node9</title>
<g id="a_edge18_Node000010_Node000009"><a xlink:title=" ">
<path fill="none" stroke="#63b8ff" d="M485.86,-111.59C468.23,-103.24 442.21,-90.92 421.99,-81.34"/>
<polygon fill="#63b8ff" stroke="#63b8ff" points="423.63,-78.25 413.1,-77.13 420.64,-84.57 423.63,-78.25"/>
</a>
</g>
</g>
<!-- Node11 -->
<g id="Node000011" class="node">
<title>Node11</title>
<g id="a_Node000011"><a xlink:title=" ">
<polygon fill="#e0e0e0" stroke="#999999" points="550.84,-76 472.59,-76 472.59,-56 550.84,-56 550.84,-76"/>
<text xml:space="preserve" text-anchor="middle" x="511.72" y="-62.5" font-family="Helvetica,sans-Serif" font-size="10.00">ArduinoJson.h</text>
</a>
</g>
</g>
<!-- Node10&#45;&gt;Node11 -->
<g id="edge17_Node000010_Node000011" class="edge">
<title>Node10&#45;&gt;Node11</title>
<g id="a_edge17_Node000010_Node000011"><a xlink:title=" ">
<path fill="none" stroke="#63b8ff" d="M506.76,-111.59C507.49,-105.01 508.5,-95.96 509.41,-87.73"/>
<polygon fill="#63b8ff" stroke="#63b8ff" points="512.89,-88.13 510.52,-77.8 505.93,-87.35 512.89,-88.13"/>
</a>
</g>
</g>
<!-- Node12 -->
<g id="Node000012" class="node">
<title>Node12</title>
<g id="a_Node000012"><a xlink:title=" ">
<polygon fill="#e0e0e0" stroke="#999999" points="624.97,-76 568.47,-76 568.47,-56 624.97,-56 624.97,-76"/>
<text xml:space="preserve" text-anchor="middle" x="596.72" y="-62.5" font-family="Helvetica,sans-Serif" font-size="10.00">WiFiS3.h</text>
</a>
</g>
</g>
<!-- Node10&#45;&gt;Node12 -->
<g id="edge19_Node000010_Node000012" class="edge">
<title>Node10&#45;&gt;Node12</title>
<g id="a_edge19_Node000010_Node000012"><a xlink:title=" ">
<path fill="none" stroke="#63b8ff" d="M521.57,-111.59C535.18,-103.51 555.08,-91.71 570.98,-82.27"/>
<polygon fill="#63b8ff" stroke="#63b8ff" points="572.63,-85.37 579.44,-77.25 569.05,-79.35 572.63,-85.37"/>
</a>
</g>
</g>
<!-- Node13 -->
<g id="Node000013" class="node">
<title>Node13</title>
<g id="a_Node000013"><a xlink:title=" ">
<polygon fill="#e0e0e0" stroke="#999999" points="726.84,-76 642.59,-76 642.59,-56 726.84,-56 726.84,-76"/>
<text xml:space="preserve" text-anchor="middle" x="684.72" y="-62.5" font-family="Helvetica,sans-Serif" font-size="10.00">PubSubClient.h</text>
</a>
</g>
</g>
<!-- Node10&#45;&gt;Node13 -->
<g id="edge20_Node000010_Node000013" class="edge">
<title>Node10&#45;&gt;Node13</title>
<g id="a_edge20_Node000010_Node000013"><a xlink:title=" ">
<path fill="none" stroke="#63b8ff" d="M531.74,-113.15C560.79,-104.38 608.22,-90.08 642.57,-79.71"/>
<polygon fill="#63b8ff" stroke="#63b8ff" points="643.21,-83.18 651.78,-76.94 641.19,-76.47 643.21,-83.18"/>
</a>
</g>
</g>
</g>
</svg>
