<?xml version="1.0" encoding="UTF-8" standalone="no"?>
<!DOCTYPE svg PUBLIC "-//W3C//DTD SVG 1.1//EN"
 "http://www.w3.org/Graphics/SVG/1.1/DTD/svg11.dtd">
<!-- Generated by graphviz version 14.1.2 (20260124.0452)
 -->
<!-- Title: Motion.h Pages: 1 -->
<svg width="469pt" height="140pt"
 viewBox="0.00 0.00 469.00 140.00" xmlns="http://www.w3.org/2000/svg" xmlns:xlink="http://www.w3.org/1999/xlink">
<g id="graph0" class="graph" transform="scale(1 1) rotate(0) translate(4 136)">
<title>Motion.h</title>
<!-- Node1 -->
<g id="Node000001" class="node">
<title>Node1</title>
<g id="a_Node000001"><a xlink:title="PIR motion sensor with debouncing and electromagnetic interference rejection.">
<polygon fill="#999999" stroke="#666666" points="247.38,-132 193.88,-132 193.88,-112 247.38,-112 247.38,-132"/>
<text xml:space="preserve" text-anchor="middle" x="220.62" y="-118.5" font-family="Helvetica,sans-Serif" font-size="10.00">Motion.h</text>
</a>
</g>
</g>
<!-- Node2 -->
<g id="Node000002" class="node">
<title>Node2</title>
<g id="a_Node000002"><a xlink:href="_garage_door_8cpp.html" target="_top" xlink:title="Implementation of garage door control and state monitoring.">
<polygon fill="white" stroke="#666666" points="87.25,-76 0,-76 0,-56 87.25,-56 87.25,-76"/>
<text xml:space="preserve" text-anchor="middle" x="43.62" y="-62.5" font-family="Helvetica,sans-Serif" font-size="10.00">GarageDoor.cpp</text>
</a>
</g>
</g>
<!-- Node1&#45;&gt;Node2 -->
<g id="edge1_Node000001_Node000002" class="edge">
<title>Node1&#45;&gt;Node2</title>
<g id="a_edge1_Node000001_Node000002"><a xlink:title=" ">
<path fill="none" stroke="#63b8ff" d="M182.95,-109.51C150.69,-99.67 104.81,-85.67 74.64,-76.46"/>
<polygon fill="#63b8ff" stroke="#63b8ff" points="181.71,-112.79 192.29,-112.36 183.75,-106.09 181.71,-112.79"/>
</a>
</g>
</g>
<!-- Node3 -->
<g id="Node000003" class="node">
<title>Node3</title>
<g id="a_Node000003"><a xlink:href="_garage_light_8cpp.html" target="_top" xlink:title="Implementation of garage light controller.">
<polygon fill="white" stroke="#666666" points="192.25,-76 105,-76 105,-56 192.25,-56 192.25,-76"/>
<text xml:space="preserve" text-anchor="middle" x="148.62" y="-62.5" font-family="Helvetica,sans-Serif" font-size="10.00">GarageLight.cpp</text>
</a>
</g>
</g>
<!-- Node1&#45;&gt;Node3 -->
<g id="edge2_Node000001_Node000003" class="edge">
<title>Node1&#45;&gt;Node3</title>
<g id="a_edge2_Node000001_Node000003"><a xlink:title=" ">
<path fill="none" stroke="#63b8ff" d="M199.23,-104.95C186.78,-95.61 171.51,-84.16 161.02,-76.3"/>
<polygon fill="#63b8ff" stroke="#63b8ff" points="196.77,-107.49 206.87,-110.69 200.97,-101.89 196.77,-107.49"/>
</a>
</g>
</g>
<!-- Node4 -->
<g id="Node000004" class="node">
<title>Node4</title>
<g id="a_Node000004"><a xlink:href="_h_v_a_c_8cpp.html" target="_top" xlink:title="Implementation of HVAC controller.">
<polygon fill="white" stroke="#666666" points="230.88,-20 168.38,-20 168.38,0 230.88,0 230.88,-20"/>
<text xml:space="preserve" text-anchor="middle" x="199.62" y="-6.5" font-family="Helvetica,sans-Serif" font-size="10.00">HVAC.cpp</text>
</a>
</g>
</g>
<!-- Node1&#45;&gt;Node4 -->
<g id="edge3_Node000001_Node000004" class="edge">
<title>Node1&#45;&gt;Node4</title>
<g id="a_edge3_Node000001_Node000004"><a xlink:title=" ">
<path fill="none" stroke="#63b8ff" d="M216.68,-100.31C212.1,-76.36 204.77,-37.95 201.41,-20.35"/>
<polygon fill="#63b8ff" stroke="#63b8ff" points="213.24,-100.97 218.55,-110.13 220.11,-99.66 213.24,-100.97"/>
</a>
</g>
</g>
<!-- Node5 -->
<g id="Node000005" class="node">
<title>Node5</title>
<g id="a_Node000005"><a xlink:href="_h_v_a_c_8h.html" target="_top" xlink:title="HVAC heating and cooling system control with temperature&#45;based switching.">
<polygon fill="white" stroke="#666666" points="300.62,-76 248.62,-76 248.62,-56 300.62,-56 300.62,-76"/>
<text xml:space="preserve" text-anchor="middle" x="274.62" y="-62.5" font-family="Helvetica,sans-Serif" font-size="10.00">HVAC.h</text>
</a>
</g>
</g>
<!-- Node1&#45;&gt;Node5 -->
<g id="edge4_Node000001_Node000005" class="edge">
<title>Node1&#45;&gt;Node5</title>
<g id="a_edge4_Node000001_Node000005"><a xlink:title=" ">
<path fill="none" stroke="#63b8ff" d="M238.06,-103.57C247.13,-94.5 257.85,-83.78 265.33,-76.3"/>
<polygon fill="#63b8ff" stroke="#63b8ff" points="235.7,-100.98 231.1,-110.52 240.65,-105.93 235.7,-100.98"/>
</a>
</g>
</g>
<!-- Node8 -->
<g id="Node000008" class="node">
<title>Node8</title>
<g id="a_Node000008"><a xlink:href="_motion_8cpp.html" target="_top" xlink:title="Implementation of motion sensor controller.">
<polygon fill="white" stroke="#666666" points="382.62,-76 318.62,-76 318.62,-56 382.62,-56 382.62,-76"/>
<text xml:space="preserve" text-anchor="middle" x="350.62" y="-62.5" font-family="Helvetica,sans-Serif" font-size="10.00">Motion.cpp</text>
</a>
</g>
</g>
<!-- Node1&#45;&gt;Node8 -->
<g id="edge8_Node000001_Node000008" class="edge">
<title>Node1&#45;&gt;Node8</title>
<g id="a_edge8_Node000001_Node000008"><a xlink:title=" ">
<path fill="none" stroke="#63b8ff" d="M253.68,-107.27C276.86,-97.64 307.27,-85.01 327.8,-76.48"/>
<polygon fill="#63b8ff" stroke="#63b8ff" points="252.56,-103.94 244.67,-111.01 255.24,-110.41 252.56,-103.94"/>
</a>
</g>
</g>
<!-- Node5&#45;&gt;Node4 -->
<g id="edge5_Node000005_Node000004" class="edge">
<title>Node5&#45;&gt;Node4</title>
<g id="a_edge5_Node000005_Node000004"><a xlink:title=" ">
<path fill="none" stroke="#63b8ff" d="M252.4,-49C239.51,-39.72 223.72,-28.35 212.79,-20.48"/>
<polygon fill="#63b8ff" stroke="#63b8ff" points="250.17,-51.71 260.33,-54.71 254.26,-46.03 250.17,-51.71"/>
</a>
</g>
</g>
<!-- Node6 -->
<g id="Node000006" class="node">
<title>Node6</title>
<g id="a_Node000006"><a xlink:href="_lcd_controller_8cpp.html" target="_top" xlink:title="Implementation of LCD display controller for garage control system.">
<polygon fill="white" stroke="#666666" points="341.88,-20 249.38,-20 249.38,0 341.88,0 341.88,-20"/>
<text xml:space="preserve" text-anchor="middle" x="295.62" y="-6.5" font-family="Helvetica,sans-Serif" font-size="10.00">LcdController.cpp</text>
</a>
</g>
</g>
<!-- Node5&#45;&gt;Node6 -->
<g id="edge6_Node000005_Node000006" class="edge">
<title>Node5&#45;&gt;Node6</title>
<g id="a_edge6_Node000005_Node000006"><a xlink:title=" ">
<path fill="none" stroke="#63b8ff" d="M282.4,-45C285.69,-36.54 289.37,-27.08 292.01,-20.3"/>
<polygon fill="#63b8ff" stroke="#63b8ff" points="279.19,-43.59 278.83,-54.18 285.72,-46.13 279.19,-43.59"/>
</a>
</g>
</g>
<!-- Node7 -->
<g id="Node000007" class="node">
<title>Node7</title>
<g id="a_Node000007"><a xlink:href="_menu_controller_8cpp.html" target="_top" xlink:title="Button debounce approach ──────────────────────── Each button has its own lastPressTime and lastPinSt...">
<polygon fill="white" stroke="#666666" points="461,-20 360.25,-20 360.25,0 461,0 461,-20"/>
<text xml:space="preserve" text-anchor="middle" x="410.62" y="-6.5" font-family="Helvetica,sans-Serif" font-size="10.00">MenuController.cpp</text>
</a>
</g>
</g>
<!-- Node5&#45;&gt;Node7 -->
<g id="edge7_Node000005_Node000007" class="edge">
<title>Node5&#45;&gt;Node7</title>
<g id="a_edge7_Node000005_Node000007"><a xlink:title=" ">
<path fill="none" stroke="#63b8ff" d="M308.87,-51.4C333.17,-41.75 365.18,-29.05 386.75,-20.48"/>
<polygon fill="#63b8ff" stroke="#63b8ff" points="307.72,-48.09 299.72,-55.04 310.31,-54.6 307.72,-48.09"/>
</a>
</g>
</g>
</g>
</svg>
