<?xml version="1.0" encoding="UTF-8" standalone="no"?>
<!DOCTYPE svg PUBLIC "-//W3C//DTD SVG 1.1//EN"
 "http://www.w3.org/Graphics/SVG/1.1/DTD/svg11.dtd">
<!-- Generated by graphviz version 14.1.2 (20260124.0452)
 -->
<!-- Title: Motion.cpp Pages: 1 -->
<svg width="139pt" height="140pt"
 viewBox="0.00 0.00 139.00 140.00" xmlns="http://www.w3.org/2000/svg" xmlns:xlink="http://www.w3.org/1999/xlink">

<svg id="main" version="1.1" xmlns="http://www.w3.org/2000/svg" xmlns:xlink="http://www.w3.org/1999/xlink" xml:space="preserve">

<style type="text/css"><![CDATA[
.node, .edge {opacity: 0.7;}
.node.selected, .edge.selected {opacity: 1;}
.edge:hover path { stroke: red; }
.edge:hover polygon { stroke: red; fill: red; }
]]></style>
<script type="application/ecmascript" xlink:href="svg.min.js"/>
<svg id="graph" class="graph">
<g id="graph0" class="graph" transform="scale(1 1) rotate(0) translate(4 136)">
<title>Motion.cpp</title>
<!-- Node1 -->
<g id="Node000001" class="node">
<title>Node1</title>
<g id="a_Node000001"><a xlink:title="Implementation of motion sensor controller.">
<polygon fill="#999999" stroke="#666666" points="69.92,-132 5.92,-132 5.92,-112 69.92,-112 69.92,-132"/>
<text xml:space="preserve" text-anchor="middle" x="37.92" y="-118.5" font-family="Helvetica,sans-Serif" font-size="10.00">Motion.cpp</text>
</a>
</g>
</g>
<!-- Node2 -->
<g id="Node000002" class="node">
<title>Node2</title>
<g id="a_Node000002"><a xlink:title=" ">
<polygon fill="#e0e0e0" stroke="#999999" points="66.54,-20 9.29,-20 9.29,0 66.54,0 66.54,-20"/>
<text xml:space="preserve" text-anchor="middle" x="37.92" y="-6.5" font-family="Helvetica,sans-Serif" font-size="10.00">Arduino.h</text>
</a>
</g>
</g>
<!-- Node1&#45;&gt;Node2 -->
<g id="edge1_Node000001_Node000002" class="edge">
<title>Node1&#45;&gt;Node2</title>
<g id="a_edge1_Node000001_Node000002"><a xlink:title=" ">
<path fill="none" stroke="#63b8ff" d="M27.07,-111.53C18.39,-103.18 6.88,-90.16 1.92,-76 -4.12,-58.79 7.49,-40.77 19.1,-28.07"/>
<polygon fill="#63b8ff" stroke="#63b8ff" points="21.27,-30.85 25.85,-21.29 16.31,-25.91 21.27,-30.85"/>
</a>
</g>
</g>
<!-- Node3 -->
<g id="Node000003" class="node">
<title>Node3</title>
<g id="a_Node000003"><a xlink:href="_motion_8h.html" target="_top" xlink:title="PIR motion sensor with debouncing and electromagnetic interference rejection.">
<polygon fill="white" stroke="#666666" points="64.67,-76 11.17,-76 11.17,-56 64.67,-56 64.67,-76"/>
<text xml:space="preserve" text-anchor="middle" x="37.92" y="-62.5" font-family="Helvetica,sans-Serif" font-size="10.00">Motion.h</text>
</a>
</g>
</g>
<!-- Node1&#45;&gt;Node3 -->
<g id="edge2_Node000001_Node000003" class="edge">
<title>Node1&#45;&gt;Node3</title>
<g id="a_edge2_Node000001_Node000003"><a xlink:title=" ">
<path fill="none" stroke="#63b8ff" d="M37.92,-111.59C37.92,-105.01 37.92,-95.96 37.92,-87.73"/>
<polygon fill="#63b8ff" stroke="#63b8ff" points="41.42,-87.81 37.92,-77.81 34.42,-87.81 41.42,-87.81"/>
</a>
</g>
</g>
<!-- Node4 -->
<g id="Node000004" class="node">
<title>Node4</title>
<g id="a_Node000004"><a xlink:href="_utility_8h.html" target="_top" xlink:title="Utility functions for timing, version information, and build configuration.">
<polygon fill="white" stroke="#666666" points="131.42,-76 82.42,-76 82.42,-56 131.42,-56 131.42,-76"/>
<text xml:space="preserve" text-anchor="middle" x="106.92" y="-62.5" font-family="Helvetica,sans-Serif" font-size="10.00">Utility.h</text>
</a>
</g>
</g>
<!-- Node1&#45;&gt;Node4 -->
<g id="edge4_Node000001_Node000004" class="edge">
<title>Node1&#45;&gt;Node4</title>
<g id="a_edge4_Node000001_Node000004"><a xlink:title=" ">
<path fill="none" stroke="#63b8ff" d="M49.93,-111.59C59.93,-103.77 74.38,-92.46 86.23,-83.19"/>
<polygon fill="#63b8ff" stroke="#63b8ff" points="88.12,-86.15 93.84,-77.23 83.81,-80.64 88.12,-86.15"/>
</a>
</g>
</g>
<!-- Node3&#45;&gt;Node2 -->
<g id="edge3_Node000003_Node000002" class="edge">
<title>Node3&#45;&gt;Node2</title>
<g id="a_edge3_Node000003_Node000002"><a xlink:title=" ">
<path fill="none" stroke="#63b8ff" d="M37.92,-55.59C37.92,-49.01 37.92,-39.96 37.92,-31.73"/>
<polygon fill="#63b8ff" stroke="#63b8ff" points="41.42,-31.81 37.92,-21.81 34.42,-31.81 41.42,-31.81"/>
</a>
</g>
</g>
<!-- Node4&#45;&gt;Node2 -->
<g id="edge5_Node000004_Node000002" class="edge">
<title>Node4&#45;&gt;Node2</title>
<g id="a_edge5_Node000004_Node000002"><a xlink:title=" ">
<path fill="none" stroke="#63b8ff" d="M94.9,-55.59C84.9,-47.77 70.45,-36.46 58.61,-27.19"/>
<polygon fill="#63b8ff" stroke="#63b8ff" points="61.02,-24.64 50.99,-21.23 56.71,-30.15 61.02,-24.64"/>
</a>
</g>
</g>
</g>
</svg>
</svg>

<style type='text/css'>
<![CDATA[
[data-mouse-over-selected='false'] { opacity: 0.7; }
[data-mouse-over-selected='true']  { opacity: 1.0; }
]]>
</style>
<script type="application/ecmascript"><![CDATA[
document.addEventListener('DOMContentLoaded', (event) => {
  highlightEdges();
  highlightAdjacentNodes();
});
]]></script>
</svg>
