<?xml version="1.0" encoding="UTF-8" standalone="no"?>
<!DOCTYPE svg PUBLIC "-//W3C//DTD SVG 1.1//EN"
 "http://www.w3.org/Graphics/SVG/1.1/DTD/svg11.dtd">
<!-- Generated by graphviz version 14.1.2 (20260124.0452)
 -->
<!-- Title: Utility.h Pages: 1 -->
<svg width="547pt" height="140pt"
 viewBox="0.00 0.00 547.00 140.00" xmlns="http://www.w3.org/2000/svg" xmlns:xlink="http://www.w3.org/1999/xlink">
<g id="graph0" class="graph" transform="scale(1 1) rotate(0) translate(4 136)">
<title>Utility.h</title>
<!-- Node1 -->
<g id="Node000001" class="node">
<title>Node1</title>
<g id="a_Node000001"><a xlink:title="Utility functions for timing, version information, and build configuration.">
<polygon fill="#999999" stroke="#666666" points="352.12,-132 303.12,-132 303.12,-112 352.12,-112 352.12,-132"/>
<text xml:space="preserve" text-anchor="middle" x="327.62" y="-118.5" font-family="Helvetica,sans-Serif" font-size="10.00">Utility.h</text>
</a>
</g>
</g>
<!-- Node2 -->
<g id="Node000002" class="node">
<title>Node2</title>
<g id="a_Node000002"><a xlink:href="_garage_door_8cpp.html" target="_top" xlink:title="Implementation of garage door control and state monitoring.">
<polygon fill="white" stroke="#666666" points="87.25,-76 0,-76 0,-56 87.25,-56 87.25,-76"/>
<text xml:space="preserve" text-anchor="middle" x="43.62" y="-62.5" font-family="Helvetica,sans-Serif" font-size="10.00">GarageDoor.cpp</text>
</a>
</g>
</g>
<!-- Node1&#45;&gt;Node2 -->
<g id="edge1_Node000001_Node000002" class="edge">
<title>Node1&#45;&gt;Node2</title>
<g id="a_edge1_Node000001_Node000002"><a xlink:title=" ">
<path fill="none" stroke="#63b8ff" d="M291.61,-114.15C239.61,-104.26 143.62,-86.01 87.54,-75.35"/>
<polygon fill="#63b8ff" stroke="#63b8ff" points="290.95,-117.59 301.43,-116.02 292.26,-110.71 290.95,-117.59"/>
</a>
</g>
</g>
<!-- Node3 -->
<g id="Node000003" class="node">
<title>Node3</title>
<g id="a_Node000003"><a xlink:href="_garage_light_8cpp.html" target="_top" xlink:title="Implementation of garage light controller.">
<polygon fill="white" stroke="#666666" points="192.25,-76 105,-76 105,-56 192.25,-56 192.25,-76"/>
<text xml:space="preserve" text-anchor="middle" x="148.62" y="-62.5" font-family="Helvetica,sans-Serif" font-size="10.00">GarageLight.cpp</text>
</a>
</g>
</g>
<!-- Node1&#45;&gt;Node3 -->
<g id="edge2_Node000001_Node000003" class="edge">
<title>Node1&#45;&gt;Node3</title>
<g id="a_edge2_Node000001_Node000003"><a xlink:title=" ">
<path fill="none" stroke="#63b8ff" d="M291.84,-110.21C259.11,-100.33 211.16,-85.87 179.92,-76.44"/>
<polygon fill="#63b8ff" stroke="#63b8ff" points="290.7,-113.52 301.29,-113.05 292.72,-106.82 290.7,-113.52"/>
</a>
</g>
</g>
<!-- Node4 -->
<g id="Node000004" class="node">
<title>Node4</title>
<g id="a_Node000004"><a xlink:href="_h_v_a_c_8cpp.html" target="_top" xlink:title="Implementation of HVAC controller.">
<polygon fill="white" stroke="#666666" points="272.88,-76 210.38,-76 210.38,-56 272.88,-56 272.88,-76"/>
<text xml:space="preserve" text-anchor="middle" x="241.62" y="-62.5" font-family="Helvetica,sans-Serif" font-size="10.00">HVAC.cpp</text>
</a>
</g>
</g>
<!-- Node1&#45;&gt;Node4 -->
<g id="edge3_Node000001_Node000004" class="edge">
<title>Node1&#45;&gt;Node4</title>
<g id="a_edge3_Node000001_Node000004"><a xlink:title=" ">
<path fill="none" stroke="#63b8ff" d="M303.01,-105.54C288.08,-96.17 269.5,-84.51 256.72,-76.48"/>
<polygon fill="#63b8ff" stroke="#63b8ff" points="301.03,-108.44 311.36,-110.79 304.76,-102.51 301.03,-108.44"/>
</a>
</g>
</g>
<!-- Node5 -->
<g id="Node000005" class="node">
<title>Node5</title>
<g id="a_Node000005"><a xlink:href="_lcd_controller_8cpp.html" target="_top" xlink:title="Implementation of LCD display controller for garage control system.">
<polygon fill="white" stroke="#666666" points="325.88,-20 233.38,-20 233.38,0 325.88,0 325.88,-20"/>
<text xml:space="preserve" text-anchor="middle" x="279.62" y="-6.5" font-family="Helvetica,sans-Serif" font-size="10.00">LcdController.cpp</text>
</a>
</g>
</g>
<!-- Node1&#45;&gt;Node5 -->
<g id="edge4_Node000001_Node000005" class="edge">
<title>Node1&#45;&gt;Node5</title>
<g id="a_edge4_Node000001_Node000005"><a xlink:title=" ">
<path fill="none" stroke="#63b8ff" d="M319.03,-101.3C308.61,-77.43 291.49,-38.2 283.71,-20.35"/>
<polygon fill="#63b8ff" stroke="#63b8ff" points="315.72,-102.47 322.93,-110.23 322.14,-99.67 315.72,-102.47"/>
</a>
</g>
</g>
<!-- Node6 -->
<g id="Node000006" class="node">
<title>Node6</title>
<g id="a_Node000006"><a xlink:href="_m_q_t_t_8cpp.html" target="_top" xlink:title="MQTTManager implementation &#45; compiled only when ENABLE_WIFI is 1.">
<polygon fill="white" stroke="#666666" points="405.5,-20 343.75,-20 343.75,0 405.5,0 405.5,-20"/>
<text xml:space="preserve" text-anchor="middle" x="374.62" y="-6.5" font-family="Helvetica,sans-Serif" font-size="10.00">MQTT.cpp</text>
</a>
</g>
</g>
<!-- Node1&#45;&gt;Node6 -->
<g id="edge5_Node000001_Node000006" class="edge">
<title>Node1&#45;&gt;Node6</title>
<g id="a_edge5_Node000001_Node000006"><a xlink:title=" ">
<path fill="none" stroke="#63b8ff" d="M359.35,-106.06C371.09,-98.77 383.11,-88.77 389.62,-76 398.99,-57.63 388.08,-33.38 380.56,-20.31"/>
<polygon fill="#63b8ff" stroke="#63b8ff" points="357.97,-102.82 351,-110.81 361.43,-108.91 357.97,-102.82"/>
</a>
</g>
</g>
<!-- Node7 -->
<g id="Node000007" class="node">
<title>Node7</title>
<g id="a_Node000007"><a xlink:href="_m_q_t_t_8h.html" target="_top" xlink:title=" ">
<polygon fill="white" stroke="#666666" points="380.25,-76 329,-76 329,-56 380.25,-56 380.25,-76"/>
<text xml:space="preserve" text-anchor="middle" x="354.62" y="-62.5" font-family="Helvetica,sans-Serif" font-size="10.00">MQTT.h</text>
</a>
</g>
</g>
<!-- Node1&#45;&gt;Node7 -->
<g id="edge6_Node000001_Node000007" class="edge">
<title>Node1&#45;&gt;Node7</title>
<g id="a_edge6_Node000001_Node000007"><a xlink:title=" ">
<path fill="none" stroke="#63b8ff" d="M337.34,-101.58C341.64,-92.97 346.51,-83.24 349.98,-76.3"/>
<polygon fill="#63b8ff" stroke="#63b8ff" points="334.35,-99.73 333,-110.24 340.61,-102.86 334.35,-99.73"/>
</a>
</g>
</g>
<!-- Node8 -->
<g id="Node000008" class="node">
<title>Node8</title>
<g id="a_Node000008"><a xlink:href="_menu_controller_8cpp.html" target="_top" xlink:title="Button debounce approach ──────────────────────── Each button has its own lastPressTime and lastPinSt...">
<polygon fill="white" stroke="#666666" points="524,-20 423.25,-20 423.25,0 524,0 524,-20"/>
<text xml:space="preserve" text-anchor="middle" x="473.62" y="-6.5" font-family="Helvetica,sans-Serif" font-size="10.00">MenuController.cpp</text>
</a>
</g>
</g>
<!-- Node1&#45;&gt;Node8 -->
<g id="edge10_Node000001_Node000008" class="edge">
<title>Node1&#45;&gt;Node8</title>
<g id="a_edge10_Node000001_Node000008"><a xlink:title=" ">
<path fill="none" stroke="#63b8ff" d="M356.56,-106.46C371.72,-98.31 390.28,-87.5 405.62,-76 429.15,-58.37 453.21,-33.4 465.42,-20.12"/>
<polygon fill="#63b8ff" stroke="#63b8ff" points="355.26,-103.19 348.03,-110.94 358.51,-109.39 355.26,-103.19"/>
</a>
</g>
</g>
<!-- Node9 -->
<g id="Node000009" class="node">
<title>Node9</title>
<g id="a_Node000009"><a xlink:href="_motion_8cpp.html" target="_top" xlink:title="Implementation of motion sensor controller.">
<polygon fill="white" stroke="#666666" points="538.62,-76 474.62,-76 474.62,-56 538.62,-56 538.62,-76"/>
<text xml:space="preserve" text-anchor="middle" x="506.62" y="-62.5" font-family="Helvetica,sans-Serif" font-size="10.00">Motion.cpp</text>
</a>
</g>
</g>
<!-- Node1&#45;&gt;Node9 -->
<g id="edge11_Node000001_Node000009" class="edge">
<title>Node1&#45;&gt;Node9</title>
<g id="a_edge11_Node000001_Node000009"><a xlink:title=" ">
<path fill="none" stroke="#63b8ff" d="M363.41,-110.21C396.14,-100.33 444.09,-85.87 475.33,-76.44"/>
<polygon fill="#63b8ff" stroke="#63b8ff" points="362.53,-106.82 353.96,-113.05 364.55,-113.52 362.53,-106.82"/>
</a>
</g>
</g>
<!-- Node7&#45;&gt;Node5 -->
<g id="edge7_Node000007_Node000005" class="edge">
<title>Node7&#45;&gt;Node5</title>
<g id="a_edge7_Node000007_Node000005"><a xlink:title=" ">
<path fill="none" stroke="#63b8ff" d="M332.4,-49C319.51,-39.72 303.72,-28.35 292.79,-20.48"/>
<polygon fill="#63b8ff" stroke="#63b8ff" points="330.17,-51.71 340.33,-54.71 334.26,-46.03 330.17,-51.71"/>
</a>
</g>
</g>
<!-- Node7&#45;&gt;Node6 -->
<g id="edge8_Node000007_Node000006" class="edge">
<title>Node7&#45;&gt;Node6</title>
<g id="a_edge8_Node000007_Node000006"><a xlink:title=" ">
<path fill="none" stroke="#63b8ff" d="M362.03,-45C365.17,-36.54 368.67,-27.08 371.18,-20.3"/>
<polygon fill="#63b8ff" stroke="#63b8ff" points="358.83,-43.58 358.63,-54.17 365.39,-46.01 358.83,-43.58"/>
</a>
</g>
</g>
<!-- Node7&#45;&gt;Node8 -->
<g id="edge9_Node000007_Node000008" class="edge">
<title>Node7&#45;&gt;Node8</title>
<g id="a_edge9_Node000007_Node000008"><a xlink:title=" ">
<path fill="none" stroke="#63b8ff" d="M385.75,-50.88C406.86,-41.3 434.2,-28.89 452.74,-20.48"/>
<polygon fill="#63b8ff" stroke="#63b8ff" points="384.39,-47.65 376.73,-54.97 387.28,-54.02 384.39,-47.65"/>
</a>
</g>
</g>
</g>
</svg>
