<?xml version="1.0" encoding="UTF-8" standalone="no"?>
<!DOCTYPE svg PUBLIC "-//W3C//DTD SVG 1.1//EN"
 "http://www.w3.org/Graphics/SVG/1.1/DTD/svg11.dtd">
<!-- Generated by graphviz version 14.1.2 (20260124.0452)
 -->
<!-- Title: now Pages: 1 -->
<svg width="394pt" height="370pt"
 viewBox="0.00 0.00 394.00 370.00" xmlns="http://www.w3.org/2000/svg" xmlns:xlink="http://www.w3.org/1999/xlink">
<g id="graph0" class="graph" transform="scale(1 1) rotate(0) translate(4 366)">
<title>now</title>
<!-- Node1 -->
<g id="Node000001" class="node">
<title>Node1</title>
<g id="a_Node000001"><a xlink:title=" ">
<polygon fill="#999999" stroke="#666666" points="386.25,-191 352.25,-191 352.25,-171 386.25,-171 386.25,-191"/>
<text xml:space="preserve" text-anchor="middle" x="369.25" y="-177.5" font-family="Helvetica,sans-Serif" font-size="10.00">now</text>
</a>
</g>
</g>
<!-- Node2 -->
<g id="Node000002" class="node">
<title>Node2</title>
<g id="a_Node000002"><a xlink:href="class_garage_door.html#a4a9610a091a45094fb96021e72bf9166" target="_top" xlink:title="Gets remaining time until auto&#45;close timeout.">
<polygon fill="white" stroke="#666666" points="316.25,-362 139,-362 139,-342 316.25,-342 316.25,-362"/>
<text xml:space="preserve" text-anchor="middle" x="227.62" y="-348.5" font-family="Helvetica,sans-Serif" font-size="10.00">GarageDoor::getDoorRemainingTime</text>
</a>
</g>
</g>
<!-- Node1&#45;&gt;Node2 -->
<g id="edge1_Node000001_Node000002" class="edge">
<title>Node1&#45;&gt;Node2</title>
<g id="a_edge1_Node000001_Node000002"><a xlink:title=" ">
<path fill="none" stroke="#63b8ff" d="M367.3,-202.45C364.63,-235.59 354.49,-298.96 316.25,-333 312.41,-336.42 308.11,-339.27 303.52,-341.64"/>
<polygon fill="#63b8ff" stroke="#63b8ff" points="370.77,-203.07 367.91,-192.87 363.78,-202.62 370.77,-203.07"/>
</a>
</g>
</g>
<!-- Node3 -->
<g id="Node000003" class="node">
<title>Node3</title>
<g id="a_Node000003"><a xlink:href="class_garage_light.html#a9d6bc21b9ee8b0be5fe2988ff34cd1f4" target="_top" xlink:title="Checks if the light is in cooldown period after manual turn&#45;off.">
<polygon fill="white" stroke="#666666" points="294.5,-324 160.75,-324 160.75,-304 294.5,-304 294.5,-324"/>
<text xml:space="preserve" text-anchor="middle" x="227.62" y="-310.5" font-family="Helvetica,sans-Serif" font-size="10.00">GarageLight::isInCooldown</text>
</a>
</g>
</g>
<!-- Node1&#45;&gt;Node3 -->
<g id="edge2_Node000001_Node000003" class="edge">
<title>Node1&#45;&gt;Node3</title>
<g id="a_edge2_Node000001_Node000003"><a xlink:title=" ">
<path fill="none" stroke="#63b8ff" d="M364.44,-202.63C358.69,-228.63 345.22,-271.66 316.25,-295 309.95,-300.08 302.59,-303.88 294.86,-306.71"/>
<polygon fill="#63b8ff" stroke="#63b8ff" points="367.86,-203.37 366.38,-192.88 361,-202.01 367.86,-203.37"/>
</a>
</g>
</g>
<!-- Node4 -->
<g id="Node000004" class="node">
<title>Node4</title>
<g id="a_Node000004"><a xlink:href="class_garage_light.html#a9666ccbc01cca5c04758d78a8fedca70" target="_top" xlink:title="Gets time remaining before auto&#45;off timeout expires.">
<polygon fill="white" stroke="#666666" points="297.12,-286 158.12,-286 158.12,-266 297.12,-266 297.12,-286"/>
<text xml:space="preserve" text-anchor="middle" x="227.62" y="-272.5" font-family="Helvetica,sans-Serif" font-size="10.00">GarageLight::lightRemaining</text>
</a>
</g>
</g>
<!-- Node1&#45;&gt;Node4 -->
<g id="edge3_Node000001_Node000004" class="edge">
<title>Node1&#45;&gt;Node4</title>
<g id="a_edge3_Node000001_Node000004"><a xlink:title=" ">
<path fill="none" stroke="#63b8ff" d="M359.42,-201.81C350.92,-219.26 336.38,-243.46 316.25,-257 310.44,-260.91 303.96,-264.03 297.23,-266.52"/>
<polygon fill="#63b8ff" stroke="#63b8ff" points="362.53,-203.41 363.5,-192.86 356.17,-200.51 362.53,-203.41"/>
</a>
</g>
</g>
<!-- Node5 -->
<g id="Node000005" class="node">
<title>Node5</title>
<g id="a_Node000005"><a xlink:href="class_menu_controller.html#ac5a7f6caf6a8eaeeec9f634e539cc3a0" target="_top" xlink:title="Resets the menu timeout due to external activity.">
<polygon fill="white" stroke="#666666" points="297.5,-248 157.75,-248 157.75,-228 297.5,-228 297.5,-248"/>
<text xml:space="preserve" text-anchor="middle" x="227.62" y="-234.5" font-family="Helvetica,sans-Serif" font-size="10.00">MenuController::noteActivity</text>
</a>
</g>
</g>
<!-- Node1&#45;&gt;Node5 -->
<g id="edge4_Node000001_Node000005" class="edge">
<title>Node1&#45;&gt;Node5</title>
<g id="a_edge4_Node000001_Node000005"><a xlink:title=" ">
<path fill="none" stroke="#63b8ff" d="M348.44,-198.51C339.22,-205.84 327.76,-213.83 316.25,-219 308.58,-222.45 300.25,-225.28 291.88,-227.61"/>
<polygon fill="#63b8ff" stroke="#63b8ff" points="350.54,-201.32 355.99,-192.24 346.06,-195.94 350.54,-201.32"/>
</a>
</g>
</g>
<!-- Node7 -->
<g id="Node000007" class="node">
<title>Node7</title>
<g id="a_Node000007"><a xlink:href="class_garage_door.html#a74913ffd9a17b595220242308a1bc8f5" target="_top" xlink:title="Polls door sensors and updates internal state.">
<polygon fill="white" stroke="#666666" points="272.38,-210 182.88,-210 182.88,-190 272.38,-190 272.38,-210"/>
<text xml:space="preserve" text-anchor="middle" x="227.62" y="-196.5" font-family="Helvetica,sans-Serif" font-size="10.00">GarageDoor::poll</text>
</a>
</g>
</g>
<!-- Node1&#45;&gt;Node7 -->
<g id="edge6_Node000001_Node000007" class="edge">
<title>Node1&#45;&gt;Node7</title>
<g id="a_edge6_Node000001_Node000007"><a xlink:title=" ">
<path fill="none" stroke="#63b8ff" d="M340.64,-184.76C321.3,-187.39 295.05,-190.96 272.82,-193.99"/>
<polygon fill="#63b8ff" stroke="#63b8ff" points="341.02,-188.24 350.46,-183.42 340.08,-181.3 341.02,-188.24"/>
</a>
</g>
</g>
<!-- Node8 -->
<g id="Node000008" class="node">
<title>Node8</title>
<g id="a_Node000008"><a xlink:href="class_garage_h_v_a_c.html#acdf8007f5ba87a9b79220370670d4563" target="_top" xlink:title="Polls temperature and controls heating/cooling relays.">
<polygon fill="white" stroke="#666666" points="275.75,-172 179.5,-172 179.5,-152 275.75,-152 275.75,-172"/>
<text xml:space="preserve" text-anchor="middle" x="227.62" y="-158.5" font-family="Helvetica,sans-Serif" font-size="10.00">GarageHVAC::poll</text>
</a>
</g>
</g>
<!-- Node1&#45;&gt;Node8 -->
<g id="edge7_Node000001_Node000008" class="edge">
<title>Node1&#45;&gt;Node8</title>
<g id="a_edge7_Node000001_Node000008"><a xlink:title=" ">
<path fill="none" stroke="#63b8ff" d="M340.62,-177.24C322.25,-174.74 297.64,-171.39 276.17,-168.47"/>
<polygon fill="#63b8ff" stroke="#63b8ff" points="340.08,-180.7 350.46,-178.58 341.02,-173.76 340.08,-180.7"/>
</a>
</g>
</g>
<!-- Node9 -->
<g id="Node000009" class="node">
<title>Node9</title>
<g id="a_Node000009"><a xlink:href="class_motion_sensor.html#a9e0a410880fb55d5750db2fef71d9717" target="_top" xlink:title="Checks if motion was detected within a specified timeout window.">
<polygon fill="white" stroke="#666666" points="299.75,-134 155.5,-134 155.5,-114 299.75,-114 299.75,-134"/>
<text xml:space="preserve" text-anchor="middle" x="227.62" y="-120.5" font-family="Helvetica,sans-Serif" font-size="10.00">MotionSensor::recentlyActive</text>
</a>
</g>
</g>
<!-- Node1&#45;&gt;Node9 -->
<g id="edge8_Node000001_Node000009" class="edge">
<title>Node1&#45;&gt;Node9</title>
<g id="a_edge8_Node000001_Node000009"><a xlink:title=" ">
<path fill="none" stroke="#63b8ff" d="M348.44,-163.49C339.22,-156.16 327.76,-148.17 316.25,-143 308.58,-139.55 300.25,-136.72 291.88,-134.39"/>
<polygon fill="#63b8ff" stroke="#63b8ff" points="346.06,-166.06 355.99,-169.76 350.54,-160.68 346.06,-166.06"/>
</a>
</g>
</g>
<!-- Node10 -->
<g id="Node000010" class="node">
<title>Node10</title>
<g id="a_Node000010"><a xlink:href="class_motion_sensor.html#aa6809076b2dda89350353f1ff5be6f4c" target="_top" xlink:title="Records a motion detection event and updates the timestamp.">
<polygon fill="white" stroke="#666666" points="296.75,-96 158.5,-96 158.5,-76 296.75,-76 296.75,-96"/>
<text xml:space="preserve" text-anchor="middle" x="227.62" y="-82.5" font-family="Helvetica,sans-Serif" font-size="10.00">MotionSensor::recordMotion</text>
</a>
</g>
</g>
<!-- Node1&#45;&gt;Node10 -->
<g id="edge9_Node000001_Node000010" class="edge">
<title>Node1&#45;&gt;Node10</title>
<g id="a_edge9_Node000001_Node000010"><a xlink:title=" ">
<path fill="none" stroke="#63b8ff" d="M359.42,-160.19C350.92,-142.74 336.38,-118.54 316.25,-105 310.44,-101.09 303.96,-97.97 297.23,-95.48"/>
<polygon fill="#63b8ff" stroke="#63b8ff" points="356.17,-161.49 363.5,-169.14 362.53,-158.59 356.17,-161.49"/>
</a>
</g>
</g>
<!-- Node11 -->
<g id="Node000011" class="node">
<title>Node11</title>
<g id="a_Node000011"><a xlink:href="class_garage_light.html#a1150f89bf14fc9c886325b5e8a7512ed" target="_top" xlink:title="Turns the light off immediately.">
<polygon fill="white" stroke="#666666" points="279.5,-20 175.75,-20 175.75,0 279.5,0 279.5,-20"/>
<text xml:space="preserve" text-anchor="middle" x="227.62" y="-6.5" font-family="Helvetica,sans-Serif" font-size="10.00">GarageLight::turnOff</text>
</a>
</g>
</g>
<!-- Node1&#45;&gt;Node11 -->
<g id="edge10_Node000001_Node000011" class="edge">
<title>Node1&#45;&gt;Node11</title>
<g id="a_edge10_Node000001_Node000011"><a xlink:title=" ">
<path fill="none" stroke="#63b8ff" d="M367.3,-159.55C364.63,-126.41 354.49,-63.04 316.25,-29 306.25,-20.1 293.08,-15.03 280,-12.23"/>
<polygon fill="#63b8ff" stroke="#63b8ff" points="363.78,-159.38 367.91,-169.13 370.77,-158.93 363.78,-159.38"/>
</a>
</g>
</g>
<!-- Node13 -->
<g id="Node000013" class="node">
<title>Node13</title>
<g id="a_Node000013"><a xlink:href="class_garage_light.html#a7e09277f75a4a1500048b20a156cc33f" target="_top" xlink:title="Turns the light on and resets the timeout.">
<polygon fill="white" stroke="#666666" points="279.5,-58 175.75,-58 175.75,-38 279.5,-38 279.5,-58"/>
<text xml:space="preserve" text-anchor="middle" x="227.62" y="-44.5" font-family="Helvetica,sans-Serif" font-size="10.00">GarageLight::turnOn</text>
</a>
</g>
</g>
<!-- Node1&#45;&gt;Node13 -->
<g id="edge13_Node000001_Node000013" class="edge">
<title>Node1&#45;&gt;Node13</title>
<g id="a_edge13_Node000001_Node000013"><a xlink:title=" ">
<path fill="none" stroke="#63b8ff" d="M364.44,-159.37C358.69,-133.37 345.22,-90.34 316.25,-67 305.95,-58.7 292.83,-53.82 279.89,-51"/>
<polygon fill="#63b8ff" stroke="#63b8ff" points="361,-159.99 366.38,-169.12 367.86,-158.63 361,-159.99"/>
</a>
</g>
</g>
<!-- Node6 -->
<g id="Node000006" class="node">
<title>Node6</title>
<g id="a_Node000006"><a xlink:href="class_menu_controller.html#a8c93f46cbd85fde1905cc3acea074722" target="_top" xlink:title="Polls button inputs and updates menu state.">
<polygon fill="white" stroke="#666666" points="103,-58 0,-58 0,-38 103,-38 103,-58"/>
<text xml:space="preserve" text-anchor="middle" x="51.5" y="-44.5" font-family="Helvetica,sans-Serif" font-size="10.00">MenuController::poll</text>
</a>
</g>
</g>
<!-- Node5&#45;&gt;Node6 -->
<g id="edge5_Node000005_Node000006" class="edge">
<title>Node5&#45;&gt;Node6</title>
<g id="a_edge5_Node000005_Node000006"><a xlink:title=" ">
<path fill="none" stroke="#63b8ff" d="M147.25,-224.44C144.36,-222.81 141.6,-221.01 139,-219 83.72,-176.27 60.93,-88.58 54.52,-58.44"/>
<polygon fill="#63b8ff" stroke="#63b8ff" points="145.56,-227.51 156.1,-228.64 148.56,-221.19 145.56,-227.51"/>
</a>
</g>
</g>
<!-- Node11&#45;&gt;Node6 -->
<g id="edge12_Node000011_Node000006" class="edge">
<title>Node11&#45;&gt;Node6</title>
<g id="a_edge12_Node000011_Node000006"><a xlink:title=" ">
<path fill="none" stroke="#63b8ff" d="M167.41,-22.82C157.91,-24.88 148.18,-27 139,-29 126.38,-31.75 112.73,-34.75 100.08,-37.52"/>
<polygon fill="#63b8ff" stroke="#63b8ff" points="167.9,-26.29 176.93,-20.75 166.42,-19.45 167.9,-26.29"/>
</a>
</g>
</g>
<!-- Node12 -->
<g id="Node000012" class="node">
<title>Node12</title>
<g id="a_Node000012"><a xlink:href="class_garage_light.html#a5e09a2c1ca7576de73bd979a90aa0442" target="_top" xlink:title="Checks timeout and automatically turns off light if expired.">
<polygon fill="white" stroke="#666666" points="96.25,-20 6.75,-20 6.75,0 96.25,0 96.25,-20"/>
<text xml:space="preserve" text-anchor="middle" x="51.5" y="-6.5" font-family="Helvetica,sans-Serif" font-size="10.00">GarageLight::poll</text>
</a>
</g>
</g>
<!-- Node11&#45;&gt;Node12 -->
<g id="edge11_Node000011_Node000012" class="edge">
<title>Node11&#45;&gt;Node12</title>
<g id="a_edge11_Node000011_Node000012"><a xlink:title=" ">
<path fill="none" stroke="#63b8ff" d="M163.92,-10C141.64,-10 117.06,-10 96.66,-10"/>
<polygon fill="#63b8ff" stroke="#63b8ff" points="163.81,-13.5 173.81,-10 163.81,-6.5 163.81,-13.5"/>
</a>
</g>
</g>
<!-- Node13&#45;&gt;Node6 -->
<g id="edge14_Node000013_Node000006" class="edge">
<title>Node13&#45;&gt;Node6</title>
<g id="a_edge14_Node000013_Node000006"><a xlink:title=" ">
<path fill="none" stroke="#63b8ff" d="M163.88,-48C144.03,-48 122.35,-48 103.43,-48"/>
<polygon fill="#63b8ff" stroke="#63b8ff" points="163.81,-51.5 173.81,-48 163.81,-44.5 163.81,-51.5"/>
</a>
</g>
</g>
</g>
</svg>
