<?xml version="1.0" encoding="UTF-8" standalone="no"?>
<!DOCTYPE svg PUBLIC "-//W3C//DTD SVG 1.1//EN"
 "http://www.w3.org/Graphics/SVG/1.1/DTD/svg11.dtd">
<!-- Generated by graphviz version 14.1.2 (20260124.0452)
 -->
<!-- Title: now Pages: 1 -->
<svg width="394pt" height="294pt"
 viewBox="0.00 0.00 394.00 294.00" xmlns="http://www.w3.org/2000/svg" xmlns:xlink="http://www.w3.org/1999/xlink">

<svg id="main" version="1.1" xmlns="http://www.w3.org/2000/svg" xmlns:xlink="http://www.w3.org/1999/xlink" xml:space="preserve">

<style type="text/css"><![CDATA[
.node, .edge {opacity: 0.7;}
.node.selected, .edge.selected {opacity: 1;}
.edge:hover path { stroke: red; }
.edge:hover polygon { stroke: red; fill: red; }
]]></style>
<script type="application/ecmascript" xlink:href="svg.min.js"/>
<svg id="graph" class="graph">
<g id="graph0" class="graph" transform="scale(1 1) rotate(0) translate(4 290)">
<title>now</title>
<!-- Node1 -->
<g id="Node000001" class="node">
<title>Node1</title>
<g id="a_Node000001"><a xlink:title=" ">
<polygon fill="#999999" stroke="#666666" points="386.25,-153 352.25,-153 352.25,-133 386.25,-133 386.25,-153"/>
<text xml:space="preserve" text-anchor="middle" x="369.25" y="-139.5" font-family="Helvetica,sans-Serif" font-size="10.00">now</text>
</a>
</g>
</g>
<!-- Node2 -->
<g id="Node000002" class="node">
<title>Node2</title>
<g id="a_Node000002"><a xlink:href="class_motion_sensor.html#adcc6799f2b0f91e9a1440d7b65226cd6" target="_top" xlink:title="Forces acknowledgment to suppress false motion triggers.">
<polygon fill="white" stroke="#666666" points="288.12,-286 167.12,-286 167.12,-266 288.12,-266 288.12,-286"/>
<text xml:space="preserve" text-anchor="middle" x="227.62" y="-272.5" font-family="Helvetica,sans-Serif" font-size="10.00">MotionSensor::forceAck</text>
</a>
</g>
</g>
<!-- Node1&#45;&gt;Node2 -->
<g id="edge1_Node000001_Node000002" class="edge">
<title>Node1&#45;&gt;Node2</title>
<g id="a_edge1_Node000001_Node000002"><a xlink:title=" ">
<path fill="none" stroke="#63b8ff" d="M364.44,-164.63C358.69,-190.63 345.22,-233.66 316.25,-257 308.25,-263.45 298.55,-267.83 288.56,-270.79"/>
<polygon fill="#63b8ff" stroke="#63b8ff" points="367.86,-165.37 366.38,-154.88 361,-164.01 367.86,-165.37"/>
</a>
</g>
</g>
<!-- Node3 -->
<g id="Node000003" class="node">
<title>Node3</title>
<g id="a_Node000003"><a xlink:href="class_garage_door.html#a4a9610a091a45094fb96021e72bf9166" target="_top" xlink:title="Gets remaining time until auto&#45;close timeout.">
<polygon fill="white" stroke="#666666" points="316.25,-248 139,-248 139,-228 316.25,-228 316.25,-248"/>
<text xml:space="preserve" text-anchor="middle" x="227.62" y="-234.5" font-family="Helvetica,sans-Serif" font-size="10.00">GarageDoor::getDoorRemainingTime</text>
</a>
</g>
</g>
<!-- Node1&#45;&gt;Node3 -->
<g id="edge2_Node000001_Node000003" class="edge">
<title>Node1&#45;&gt;Node3</title>
<g id="a_edge2_Node000001_Node000003"><a xlink:title=" ">
<path fill="none" stroke="#63b8ff" d="M359.42,-163.81C350.92,-181.26 336.38,-205.46 316.25,-219 311.08,-222.48 305.39,-225.33 299.47,-227.67"/>
<polygon fill="#63b8ff" stroke="#63b8ff" points="362.53,-165.41 363.5,-154.86 356.17,-162.51 362.53,-165.41"/>
</a>
</g>
</g>
<!-- Node4 -->
<g id="Node000004" class="node">
<title>Node4</title>
<g id="a_Node000004"><a xlink:href="class_garage_light.html#a9666ccbc01cca5c04758d78a8fedca70" target="_top" xlink:title="Gets time remaining before auto&#45;off timeout expires.">
<polygon fill="white" stroke="#666666" points="297.12,-210 158.12,-210 158.12,-190 297.12,-190 297.12,-210"/>
<text xml:space="preserve" text-anchor="middle" x="227.62" y="-196.5" font-family="Helvetica,sans-Serif" font-size="10.00">GarageLight::lightRemaining</text>
</a>
</g>
</g>
<!-- Node1&#45;&gt;Node4 -->
<g id="edge3_Node000001_Node000004" class="edge">
<title>Node1&#45;&gt;Node4</title>
<g id="a_edge3_Node000001_Node000004"><a xlink:title=" ">
<path fill="none" stroke="#63b8ff" d="M348.44,-160.51C339.22,-167.84 327.76,-175.83 316.25,-181 308.58,-184.45 300.25,-187.28 291.88,-189.61"/>
<polygon fill="#63b8ff" stroke="#63b8ff" points="350.54,-163.32 355.99,-154.24 346.06,-157.94 350.54,-163.32"/>
</a>
</g>
</g>
<!-- Node5 -->
<g id="Node000005" class="node">
<title>Node5</title>
<g id="a_Node000005"><a xlink:href="class_menu_controller.html#ac5a7f6caf6a8eaeeec9f634e539cc3a0" target="_top" xlink:title="Resets the menu timeout due to external activity.">
<polygon fill="white" stroke="#666666" points="297.5,-172 157.75,-172 157.75,-152 297.5,-152 297.5,-172"/>
<text xml:space="preserve" text-anchor="middle" x="227.62" y="-158.5" font-family="Helvetica,sans-Serif" font-size="10.00">MenuController::noteActivity</text>
</a>
</g>
</g>
<!-- Node1&#45;&gt;Node5 -->
<g id="edge4_Node000001_Node000005" class="edge">
<title>Node1&#45;&gt;Node5</title>
<g id="a_edge4_Node000001_Node000005"><a xlink:title=" ">
<path fill="none" stroke="#63b8ff" d="M340.6,-146.76C328.19,-148.45 312.93,-150.53 297.72,-152.6"/>
<polygon fill="#63b8ff" stroke="#63b8ff" points="341.02,-150.24 350.46,-145.42 340.08,-143.3 341.02,-150.24"/>
</a>
</g>
</g>
<!-- Node7 -->
<g id="Node000007" class="node">
<title>Node7</title>
<g id="a_Node000007"><a xlink:href="class_garage_door.html#a74913ffd9a17b595220242308a1bc8f5" target="_top" xlink:title="Polls door sensors and updates internal state.">
<polygon fill="white" stroke="#666666" points="272.38,-134 182.88,-134 182.88,-114 272.38,-114 272.38,-134"/>
<text xml:space="preserve" text-anchor="middle" x="227.62" y="-120.5" font-family="Helvetica,sans-Serif" font-size="10.00">GarageDoor::poll</text>
</a>
</g>
</g>
<!-- Node1&#45;&gt;Node7 -->
<g id="edge6_Node000001_Node000007" class="edge">
<title>Node1&#45;&gt;Node7</title>
<g id="a_edge6_Node000001_Node000007"><a xlink:title=" ">
<path fill="none" stroke="#63b8ff" d="M340.64,-139.24C321.3,-136.61 295.05,-133.04 272.82,-130.01"/>
<polygon fill="#63b8ff" stroke="#63b8ff" points="340.08,-142.7 350.46,-140.58 341.02,-135.76 340.08,-142.7"/>
</a>
</g>
</g>
<!-- Node8 -->
<g id="Node000008" class="node">
<title>Node8</title>
<g id="a_Node000008"><a xlink:href="class_motion_sensor.html#a7e3706aa8425b6c176af5fea28824a0c" target="_top" xlink:title="Polls the motion sensor for new motion activity.">
<polygon fill="white" stroke="#666666" points="276.12,-96 179.12,-96 179.12,-76 276.12,-76 276.12,-96"/>
<text xml:space="preserve" text-anchor="middle" x="227.62" y="-82.5" font-family="Helvetica,sans-Serif" font-size="10.00">MotionSensor::poll</text>
</a>
</g>
</g>
<!-- Node1&#45;&gt;Node8 -->
<g id="edge7_Node000001_Node000008" class="edge">
<title>Node1&#45;&gt;Node8</title>
<g id="a_edge7_Node000001_Node000008"><a xlink:title=" ">
<path fill="none" stroke="#63b8ff" d="M348.44,-125.49C339.22,-118.16 327.76,-110.17 316.25,-105 303.9,-99.45 289.82,-95.48 276.62,-92.65"/>
<polygon fill="#63b8ff" stroke="#63b8ff" points="346.06,-128.06 355.99,-131.76 350.54,-122.68 346.06,-128.06"/>
</a>
</g>
</g>
<!-- Node9 -->
<g id="Node000009" class="node">
<title>Node9</title>
<g id="a_Node000009"><a xlink:href="class_motion_sensor.html#a9e0a410880fb55d5750db2fef71d9717" target="_top" xlink:title="Checks if motion was detected within a specified timeout window.">
<polygon fill="white" stroke="#666666" points="299.75,-58 155.5,-58 155.5,-38 299.75,-38 299.75,-58"/>
<text xml:space="preserve" text-anchor="middle" x="227.62" y="-44.5" font-family="Helvetica,sans-Serif" font-size="10.00">MotionSensor::recentlyActive</text>
</a>
</g>
</g>
<!-- Node1&#45;&gt;Node9 -->
<g id="edge8_Node000001_Node000009" class="edge">
<title>Node1&#45;&gt;Node9</title>
<g id="a_edge8_Node000001_Node000009"><a xlink:title=" ">
<path fill="none" stroke="#63b8ff" d="M359.42,-122.19C350.92,-104.74 336.38,-80.54 316.25,-67 311.08,-63.52 305.39,-60.67 299.47,-58.33"/>
<polygon fill="#63b8ff" stroke="#63b8ff" points="356.17,-123.49 363.5,-131.14 362.53,-120.59 356.17,-123.49"/>
</a>
</g>
</g>
<!-- Node10 -->
<g id="Node000010" class="node">
<title>Node10</title>
<g id="a_Node000010"><a xlink:href="class_garage_light.html#a7e09277f75a4a1500048b20a156cc33f" target="_top" xlink:title="Turns the light on and resets the timeout.">
<polygon fill="white" stroke="#666666" points="279.5,-20 175.75,-20 175.75,0 279.5,0 279.5,-20"/>
<text xml:space="preserve" text-anchor="middle" x="227.62" y="-6.5" font-family="Helvetica,sans-Serif" font-size="10.00">GarageLight::turnOn</text>
</a>
</g>
</g>
<!-- Node1&#45;&gt;Node10 -->
<g id="edge9_Node000001_Node000010" class="edge">
<title>Node1&#45;&gt;Node10</title>
<g id="a_edge9_Node000001_Node000010"><a xlink:title=" ">
<path fill="none" stroke="#63b8ff" d="M364.44,-121.37C358.69,-95.37 345.22,-52.34 316.25,-29 305.95,-20.7 292.83,-15.82 279.89,-13"/>
<polygon fill="#63b8ff" stroke="#63b8ff" points="361,-121.99 366.38,-131.12 367.86,-120.63 361,-121.99"/>
</a>
</g>
</g>
<!-- Node6 -->
<g id="Node000006" class="node">
<title>Node6</title>
<g id="a_Node000006"><a xlink:href="class_menu_controller.html#a8c93f46cbd85fde1905cc3acea074722" target="_top" xlink:title="Polls button inputs and updates menu state.">
<polygon fill="white" stroke="#666666" points="103,-96 0,-96 0,-76 103,-76 103,-96"/>
<text xml:space="preserve" text-anchor="middle" x="51.5" y="-82.5" font-family="Helvetica,sans-Serif" font-size="10.00">MenuController::poll</text>
</a>
</g>
</g>
<!-- Node5&#45;&gt;Node6 -->
<g id="edge5_Node000005_Node000006" class="edge">
<title>Node5&#45;&gt;Node6</title>
<g id="a_edge5_Node000005_Node000006"><a xlink:title=" ">
<path fill="none" stroke="#63b8ff" d="M153.48,-148.31C148.52,-146.72 143.65,-144.95 139,-143 110.32,-130.94 80.9,-109.15 64.84,-96.29"/>
<polygon fill="#63b8ff" stroke="#63b8ff" points="152.42,-151.64 163.01,-151.09 154.39,-144.93 152.42,-151.64"/>
</a>
</g>
</g>
<!-- Node10&#45;&gt;Node6 -->
<g id="edge10_Node000010_Node000006" class="edge">
<title>Node10&#45;&gt;Node6</title>
<g id="a_edge10_Node000010_Node000006"><a xlink:title=" ">
<path fill="none" stroke="#63b8ff" d="M164.57,-20.45C155.83,-22.79 147.07,-25.61 139,-29 110.32,-41.06 80.9,-62.85 64.84,-75.71"/>
<polygon fill="#63b8ff" stroke="#63b8ff" points="165.25,-23.89 174.13,-18.11 163.58,-17.09 165.25,-23.89"/>
</a>
</g>
</g>
</g>
</svg>
</svg>

<style type='text/css'>
<![CDATA[
[data-mouse-over-selected='false'] { opacity: 0.7; }
[data-mouse-over-selected='true']  { opacity: 1.0; }
]]>
</style>
<script type="application/ecmascript"><![CDATA[
document.addEventListener('DOMContentLoaded', (event) => {
  highlightEdges();
  highlightAdjacentNodes();
});
]]></script>
</svg>
