<?xml version="1.0" encoding="UTF-8" standalone="no"?>
<!DOCTYPE svg PUBLIC "-//W3C//DTD SVG 1.1//EN"
 "http://www.w3.org/Graphics/SVG/1.1/DTD/svg11.dtd">
<!-- Generated by graphviz version 14.1.2 (20260124.0452)
 -->
<!-- Title: now Pages: 1 -->
<svg width="394pt" height="332pt"
 viewBox="0.00 0.00 394.00 332.00" xmlns="http://www.w3.org/2000/svg" xmlns:xlink="http://www.w3.org/1999/xlink">
<g id="graph0" class="graph" transform="scale(1 1) rotate(0) translate(4 328)">
<title>now</title>
<!-- Node1 -->
<g id="Node000001" class="node">
<title>Node1</title>
<g id="a_Node000001"><a xlink:title=" ">
<polygon fill="#999999" stroke="#666666" points="386.25,-172 352.25,-172 352.25,-152 386.25,-152 386.25,-172"/>
<text xml:space="preserve" text-anchor="middle" x="369.25" y="-158.5" font-family="Helvetica,sans-Serif" font-size="10.00">now</text>
</a>
</g>
</g>
<!-- Node2 -->
<g id="Node000002" class="node">
<title>Node2</title>
<g id="a_Node000002"><a xlink:href="class_motion_sensor.html#adcc6799f2b0f91e9a1440d7b65226cd6" target="_top" xlink:title="Forces acknowledgment to suppress false motion triggers.">
<polygon fill="white" stroke="#666666" points="288.12,-324 167.12,-324 167.12,-304 288.12,-304 288.12,-324"/>
<text xml:space="preserve" text-anchor="middle" x="227.62" y="-310.5" font-family="Helvetica,sans-Serif" font-size="10.00">MotionSensor::forceAck</text>
</a>
</g>
</g>
<!-- Node1&#45;&gt;Node2 -->
<g id="edge1_Node000001_Node000002" class="edge">
<title>Node1&#45;&gt;Node2</title>
<g id="a_edge1_Node000001_Node000002"><a xlink:title=" ">
<path fill="none" stroke="#63b8ff" d="M366.1,-183.29C361.92,-212.96 349.93,-266.29 316.25,-295 308.31,-301.77 298.53,-306.29 288.41,-309.29"/>
<polygon fill="#63b8ff" stroke="#63b8ff" points="369.54,-184.02 367.27,-173.68 362.59,-183.18 369.54,-184.02"/>
</a>
</g>
</g>
<!-- Node3 -->
<g id="Node000003" class="node">
<title>Node3</title>
<g id="a_Node000003"><a xlink:href="class_garage_door.html#a4a9610a091a45094fb96021e72bf9166" target="_top" xlink:title="Gets remaining time until auto&#45;close timeout.">
<polygon fill="white" stroke="#666666" points="316.25,-286 139,-286 139,-266 316.25,-266 316.25,-286"/>
<text xml:space="preserve" text-anchor="middle" x="227.62" y="-272.5" font-family="Helvetica,sans-Serif" font-size="10.00">GarageDoor::getDoorRemainingTime</text>
</a>
</g>
</g>
<!-- Node1&#45;&gt;Node3 -->
<g id="edge2_Node000001_Node000003" class="edge">
<title>Node1&#45;&gt;Node3</title>
<g id="a_edge2_Node000001_Node000003"><a xlink:title=" ">
<path fill="none" stroke="#63b8ff" d="M362.35,-183.3C355.14,-205.22 340.78,-238.67 316.25,-257 311.64,-260.45 306.53,-263.3 301.16,-265.65"/>
<polygon fill="#63b8ff" stroke="#63b8ff" points="365.64,-184.52 365.19,-173.93 358.94,-182.48 365.64,-184.52"/>
</a>
</g>
</g>
<!-- Node4 -->
<g id="Node000004" class="node">
<title>Node4</title>
<g id="a_Node000004"><a xlink:href="class_garage_light.html#a9666ccbc01cca5c04758d78a8fedca70" target="_top" xlink:title="Gets time remaining before auto&#45;off timeout expires.">
<polygon fill="white" stroke="#666666" points="297.12,-248 158.12,-248 158.12,-228 297.12,-228 297.12,-248"/>
<text xml:space="preserve" text-anchor="middle" x="227.62" y="-234.5" font-family="Helvetica,sans-Serif" font-size="10.00">GarageLight::lightRemaining</text>
</a>
</g>
</g>
<!-- Node1&#45;&gt;Node4 -->
<g id="edge3_Node000001_Node000004" class="edge">
<title>Node1&#45;&gt;Node4</title>
<g id="a_edge3_Node000001_Node000004"><a xlink:title=" ">
<path fill="none" stroke="#63b8ff" d="M355.36,-181.48C345.99,-194.1 332.19,-209.82 316.25,-219 310.31,-222.42 303.83,-225.22 297.16,-227.52"/>
<polygon fill="#63b8ff" stroke="#63b8ff" points="358.11,-183.65 361.01,-173.46 352.39,-179.62 358.11,-183.65"/>
</a>
</g>
</g>
<!-- Node5 -->
<g id="Node000005" class="node">
<title>Node5</title>
<g id="a_Node000005"><a xlink:href="class_menu_controller.html#ac5a7f6caf6a8eaeeec9f634e539cc3a0" target="_top" xlink:title="Resets the menu timeout due to external activity.">
<polygon fill="white" stroke="#666666" points="297.5,-210 157.75,-210 157.75,-190 297.5,-190 297.5,-210"/>
<text xml:space="preserve" text-anchor="middle" x="227.62" y="-196.5" font-family="Helvetica,sans-Serif" font-size="10.00">MenuController::noteActivity</text>
</a>
</g>
</g>
<!-- Node1&#45;&gt;Node5 -->
<g id="edge4_Node000001_Node000005" class="edge">
<title>Node1&#45;&gt;Node5</title>
<g id="a_edge4_Node000001_Node000005"><a xlink:title=" ">
<path fill="none" stroke="#63b8ff" d="M341.42,-172.6C333.4,-175.55 324.53,-178.6 316.25,-181 305.34,-184.16 293.52,-187.06 282.21,-189.6"/>
<polygon fill="#63b8ff" stroke="#63b8ff" points="342.52,-175.92 350.63,-169.11 340.04,-169.38 342.52,-175.92"/>
</a>
</g>
</g>
<!-- Node7 -->
<g id="Node000007" class="node">
<title>Node7</title>
<g id="a_Node000007"><a xlink:href="class_garage_door.html#a74913ffd9a17b595220242308a1bc8f5" target="_top" xlink:title="Polls door sensors and updates internal state.">
<polygon fill="white" stroke="#666666" points="272.38,-172 182.88,-172 182.88,-152 272.38,-152 272.38,-172"/>
<text xml:space="preserve" text-anchor="middle" x="227.62" y="-158.5" font-family="Helvetica,sans-Serif" font-size="10.00">GarageDoor::poll</text>
</a>
</g>
</g>
<!-- Node1&#45;&gt;Node7 -->
<g id="edge6_Node000001_Node000007" class="edge">
<title>Node1&#45;&gt;Node7</title>
<g id="a_edge6_Node000001_Node000007"><a xlink:title=" ">
<path fill="none" stroke="#63b8ff" d="M340.64,-162C321.3,-162 295.05,-162 272.82,-162"/>
<polygon fill="#63b8ff" stroke="#63b8ff" points="340.45,-165.5 350.45,-162 340.45,-158.5 340.45,-165.5"/>
</a>
</g>
</g>
<!-- Node8 -->
<g id="Node000008" class="node">
<title>Node8</title>
<g id="a_Node000008"><a xlink:href="class_garage_h_v_a_c.html#acdf8007f5ba87a9b79220370670d4563" target="_top" xlink:title="Polls temperature and controls heating/cooling relays.">
<polygon fill="white" stroke="#666666" points="275.75,-134 179.5,-134 179.5,-114 275.75,-114 275.75,-134"/>
<text xml:space="preserve" text-anchor="middle" x="227.62" y="-120.5" font-family="Helvetica,sans-Serif" font-size="10.00">GarageHVAC::poll</text>
</a>
</g>
</g>
<!-- Node1&#45;&gt;Node8 -->
<g id="edge7_Node000001_Node000008" class="edge">
<title>Node1&#45;&gt;Node8</title>
<g id="a_edge7_Node000001_Node000008"><a xlink:title=" ">
<path fill="none" stroke="#63b8ff" d="M341.42,-151.4C333.4,-148.45 324.53,-145.4 316.25,-143 303.39,-139.28 289.28,-135.91 276.22,-133.08"/>
<polygon fill="#63b8ff" stroke="#63b8ff" points="340.04,-154.62 350.63,-154.89 342.52,-148.08 340.04,-154.62"/>
</a>
</g>
</g>
<!-- Node9 -->
<g id="Node000009" class="node">
<title>Node9</title>
<g id="a_Node000009"><a xlink:href="class_motion_sensor.html#a7e3706aa8425b6c176af5fea28824a0c" target="_top" xlink:title="Polls the motion sensor for new motion activity.">
<polygon fill="white" stroke="#666666" points="276.12,-96 179.12,-96 179.12,-76 276.12,-76 276.12,-96"/>
<text xml:space="preserve" text-anchor="middle" x="227.62" y="-82.5" font-family="Helvetica,sans-Serif" font-size="10.00">MotionSensor::poll</text>
</a>
</g>
</g>
<!-- Node1&#45;&gt;Node9 -->
<g id="edge8_Node000001_Node000009" class="edge">
<title>Node1&#45;&gt;Node9</title>
<g id="a_edge8_Node000001_Node000009"><a xlink:title=" ">
<path fill="none" stroke="#63b8ff" d="M355.36,-142.52C345.99,-129.9 332.19,-114.18 316.25,-105 304.24,-98.09 289.99,-93.69 276.51,-90.88"/>
<polygon fill="#63b8ff" stroke="#63b8ff" points="352.39,-144.38 361.01,-150.54 358.11,-140.35 352.39,-144.38"/>
</a>
</g>
</g>
<!-- Node10 -->
<g id="Node000010" class="node">
<title>Node10</title>
<g id="a_Node000010"><a xlink:href="class_motion_sensor.html#a9e0a410880fb55d5750db2fef71d9717" target="_top" xlink:title="Checks if motion was detected within a specified timeout window.">
<polygon fill="white" stroke="#666666" points="299.75,-58 155.5,-58 155.5,-38 299.75,-38 299.75,-58"/>
<text xml:space="preserve" text-anchor="middle" x="227.62" y="-44.5" font-family="Helvetica,sans-Serif" font-size="10.00">MotionSensor::recentlyActive</text>
</a>
</g>
</g>
<!-- Node1&#45;&gt;Node10 -->
<g id="edge9_Node000001_Node000010" class="edge">
<title>Node1&#45;&gt;Node10</title>
<g id="a_edge9_Node000001_Node000010"><a xlink:title=" ">
<path fill="none" stroke="#63b8ff" d="M362.35,-140.7C355.14,-118.78 340.78,-85.33 316.25,-67 311.26,-63.27 305.69,-60.25 299.85,-57.79"/>
<polygon fill="#63b8ff" stroke="#63b8ff" points="358.94,-141.52 365.19,-150.07 365.64,-139.48 358.94,-141.52"/>
</a>
</g>
</g>
<!-- Node11 -->
<g id="Node000011" class="node">
<title>Node11</title>
<g id="a_Node000011"><a xlink:href="class_garage_light.html#a7e09277f75a4a1500048b20a156cc33f" target="_top" xlink:title="Turns the light on and resets the timeout.">
<polygon fill="white" stroke="#666666" points="279.5,-20 175.75,-20 175.75,0 279.5,0 279.5,-20"/>
<text xml:space="preserve" text-anchor="middle" x="227.62" y="-6.5" font-family="Helvetica,sans-Serif" font-size="10.00">GarageLight::turnOn</text>
</a>
</g>
</g>
<!-- Node1&#45;&gt;Node11 -->
<g id="edge10_Node000001_Node000011" class="edge">
<title>Node1&#45;&gt;Node11</title>
<g id="a_edge10_Node000001_Node000011"><a xlink:title=" ">
<path fill="none" stroke="#63b8ff" d="M366.1,-140.71C361.92,-111.04 349.93,-57.71 316.25,-29 306.06,-20.32 292.83,-15.32 279.75,-12.52"/>
<polygon fill="#63b8ff" stroke="#63b8ff" points="362.59,-140.82 367.27,-150.32 369.54,-139.98 362.59,-140.82"/>
</a>
</g>
</g>
<!-- Node6 -->
<g id="Node000006" class="node">
<title>Node6</title>
<g id="a_Node000006"><a xlink:href="class_menu_controller.html#a8c93f46cbd85fde1905cc3acea074722" target="_top" xlink:title="Polls button inputs and updates menu state.">
<polygon fill="white" stroke="#666666" points="103,-115 0,-115 0,-95 103,-95 103,-115"/>
<text xml:space="preserve" text-anchor="middle" x="51.5" y="-101.5" font-family="Helvetica,sans-Serif" font-size="10.00">MenuController::poll</text>
</a>
</g>
</g>
<!-- Node5&#45;&gt;Node6 -->
<g id="edge5_Node000005_Node000006" class="edge">
<title>Node5&#45;&gt;Node6</title>
<g id="a_edge5_Node000005_Node000006"><a xlink:title=" ">
<path fill="none" stroke="#63b8ff" d="M149.95,-185.84C146.18,-184.38 142.51,-182.77 139,-181 105.98,-164.34 75.51,-132.07 61.15,-115.45"/>
<polygon fill="#63b8ff" stroke="#63b8ff" points="148.73,-189.12 159.33,-189.07 151.01,-182.5 148.73,-189.12"/>
</a>
</g>
</g>
<!-- Node11&#45;&gt;Node6 -->
<g id="edge11_Node000011_Node000006" class="edge">
<title>Node11&#45;&gt;Node6</title>
<g id="a_edge11_Node000011_Node000006"><a xlink:title=" ">
<path fill="none" stroke="#63b8ff" d="M164.44,-19.36C155.65,-21.85 146.92,-25.01 139,-29 105.98,-45.66 75.51,-77.93 61.15,-94.55"/>
<polygon fill="#63b8ff" stroke="#63b8ff" points="165.25,-22.76 174.08,-16.91 163.53,-15.98 165.25,-22.76"/>
</a>
</g>
</g>
</g>
</svg>
