<?xml version="1.0" encoding="UTF-8" standalone="no"?>
<!DOCTYPE svg PUBLIC "-//W3C//DTD SVG 1.1//EN"
 "http://www.w3.org/Graphics/SVG/1.1/DTD/svg11.dtd">
<!-- Generated by graphviz version 14.1.2 (20260124.0452)
 -->
<!-- Title: GarageLight::lightRemaining Pages: 1 -->
<svg width="278pt" height="66pt"
 viewBox="0.00 0.00 278.00 66.00" xmlns="http://www.w3.org/2000/svg" xmlns:xlink="http://www.w3.org/1999/xlink">
<g id="graph0" class="graph" transform="scale(1 1) rotate(0) translate(4 62)">
<title>GarageLight::lightRemaining</title>
<!-- Node1 -->
<g id="Node000001" class="node">
<title>Node1</title>
<g id="a_Node000001"><a xlink:title="Gets time remaining before auto&#45;off timeout expires.">
<polygon fill="#999999" stroke="#666666" points="139,-39 0,-39 0,-19 139,-19 139,-39"/>
<text xml:space="preserve" text-anchor="middle" x="69.5" y="-25.5" font-family="Helvetica,sans-Serif" font-size="10.00">GarageLight::lightRemaining</text>
</a>
</g>
</g>
<!-- Node2 -->
<g id="Node000002" class="node">
<title>Node2</title>
<g id="a_Node000002"><a xlink:href="class_garage_light.html#a22b20dfc40a4a4cb6b8819e77ad97f95" target="_top" xlink:title="Gets the current light on/off state.">
<polygon fill="white" stroke="#666666" points="269.75,-58 175,-58 175,-38 269.75,-38 269.75,-58"/>
<text xml:space="preserve" text-anchor="middle" x="222.38" y="-44.5" font-family="Helvetica,sans-Serif" font-size="10.00">GarageLight::isOn</text>
</a>
</g>
</g>
<!-- Node1&#45;&gt;Node2 -->
<g id="edge1_Node000001_Node000002" class="edge">
<title>Node1&#45;&gt;Node2</title>
<g id="a_edge1_Node000001_Node000002"><a xlink:title=" ">
<path fill="none" stroke="#63b8ff" d="M139.31,-37.67C147.36,-38.68 155.5,-39.7 163.37,-40.7"/>
<polygon fill="#63b8ff" stroke="#63b8ff" points="162.81,-44.15 173.17,-41.93 163.69,-37.21 162.81,-44.15"/>
</a>
</g>
</g>
<!-- Node3 -->
<g id="Node000003" class="node">
<title>Node3</title>
<g id="a_Node000003"><a xlink:href="_utility_8h.html#a0b367d87e38eb8541b95194a0d870322" target="_top" xlink:title=" ">
<polygon fill="white" stroke="#666666" points="239.38,-20 205.38,-20 205.38,0 239.38,0 239.38,-20"/>
<text xml:space="preserve" text-anchor="middle" x="222.38" y="-6.5" font-family="Helvetica,sans-Serif" font-size="10.00">now</text>
</a>
</g>
</g>
<!-- Node1&#45;&gt;Node3 -->
<g id="edge2_Node000001_Node000003" class="edge">
<title>Node1&#45;&gt;Node3</title>
<g id="a_edge2_Node000001_Node000003"><a xlink:title=" ">
<path fill="none" stroke="#63b8ff" d="M139.31,-20.33C158.57,-17.91 178.41,-15.41 193.75,-13.48"/>
<polygon fill="#63b8ff" stroke="#63b8ff" points="194.01,-16.97 203.5,-12.25 193.14,-10.03 194.01,-16.97"/>
</a>
</g>
</g>
</g>
</svg>
