<?xml version="1.0" encoding="UTF-8" standalone="no"?>
<!DOCTYPE svg PUBLIC "-//W3C//DTD SVG 1.1//EN"
 "http://www.w3.org/Graphics/SVG/1.1/DTD/svg11.dtd">
<!-- Generated by graphviz version 14.1.2 (20260124.0452)
 -->
<!-- Title: GarageDoor::poll Pages: 1 -->
<svg width="181pt" height="66pt"
 viewBox="0.00 0.00 181.00 66.00" xmlns="http://www.w3.org/2000/svg" xmlns:xlink="http://www.w3.org/1999/xlink">
<g id="graph0" class="graph" transform="scale(1 1) rotate(0) translate(4 62)">
<title>GarageDoor::poll</title>
<!-- Node1 -->
<g id="Node000001" class="node">
<title>Node1</title>
<g id="a_Node000001"><a xlink:title="Polls door sensors and updates internal state.">
<polygon fill="#999999" stroke="#666666" points="89.5,-39 0,-39 0,-19 89.5,-19 89.5,-39"/>
<text xml:space="preserve" text-anchor="middle" x="44.75" y="-25.5" font-family="Helvetica,sans-Serif" font-size="10.00">GarageDoor::poll</text>
</a>
</g>
</g>
<!-- Node2 -->
<g id="Node000002" class="node">
<title>Node2</title>
<g id="a_Node000002"><a xlink:href="_utility_8h.html#a40e1498cfd1819c6e35d092a7ec96cf5" target="_top" xlink:title="Checks if a time interval has expired since a given timestamp.">
<polygon fill="white" stroke="#666666" points="173,-58 125.5,-58 125.5,-38 173,-38 173,-58"/>
<text xml:space="preserve" text-anchor="middle" x="149.25" y="-44.5" font-family="Helvetica,sans-Serif" font-size="10.00">expired</text>
</a>
</g>
</g>
<!-- Node1&#45;&gt;Node2 -->
<g id="edge1_Node000001_Node000002" class="edge">
<title>Node1&#45;&gt;Node2</title>
<g id="a_edge1_Node000001_Node000002"><a xlink:title=" ">
<path fill="none" stroke="#63b8ff" d="M89.81,-37.17C97.89,-38.66 106.2,-40.21 113.93,-41.64"/>
<polygon fill="#63b8ff" stroke="#63b8ff" points="113.16,-45.06 123.63,-43.44 114.44,-38.17 113.16,-45.06"/>
</a>
</g>
</g>
<!-- Node3 -->
<g id="Node000003" class="node">
<title>Node3</title>
<g id="a_Node000003"><a xlink:href="_utility_8h.html#a0b367d87e38eb8541b95194a0d870322" target="_top" xlink:title=" ">
<polygon fill="white" stroke="#666666" points="166.25,-20 132.25,-20 132.25,0 166.25,0 166.25,-20"/>
<text xml:space="preserve" text-anchor="middle" x="149.25" y="-6.5" font-family="Helvetica,sans-Serif" font-size="10.00">now</text>
</a>
</g>
</g>
<!-- Node1&#45;&gt;Node3 -->
<g id="edge2_Node000001_Node000003" class="edge">
<title>Node1&#45;&gt;Node3</title>
<g id="a_edge2_Node000001_Node000003"><a xlink:title=" ">
<path fill="none" stroke="#63b8ff" d="M89.81,-20.83C100.34,-18.88 111.29,-16.85 120.82,-15.09"/>
<polygon fill="#63b8ff" stroke="#63b8ff" points="121.31,-18.55 130.51,-13.29 120.04,-11.67 121.31,-18.55"/>
</a>
</g>
</g>
</g>
</svg>
