<?xml version="1.0" encoding="UTF-8" standalone="no"?>
<!DOCTYPE svg PUBLIC "-//W3C//DTD SVG 1.1//EN"
 "http://www.w3.org/Graphics/SVG/1.1/DTD/svg11.dtd">
<!-- Generated by graphviz version 14.1.2 (20260124.0452)
 -->
<!-- Title: MenuController::poll Pages: 1 -->
<svg width="359pt" height="218pt"
 viewBox="0.00 0.00 359.00 218.00" xmlns="http://www.w3.org/2000/svg" xmlns:xlink="http://www.w3.org/1999/xlink">
<g id="graph0" class="graph" transform="scale(1 1) rotate(0) translate(4 214)">
<title>MenuController::poll</title>
<!-- Node1 -->
<g id="Node000001" class="node">
<title>Node1</title>
<g id="a_Node000001"><a xlink:title="Polls button inputs and updates menu state.">
<polygon fill="#999999" stroke="#666666" points="103,-115 0,-115 0,-95 103,-95 103,-115"/>
<text xml:space="preserve" text-anchor="middle" x="51.5" y="-101.5" font-family="Helvetica,sans-Serif" font-size="10.00">MenuController::poll</text>
</a>
</g>
</g>
<!-- Node2 -->
<g id="Node000002" class="node">
<title>Node2</title>
<g id="a_Node000002"><a xlink:href="_utility_8h.html#a40e1498cfd1819c6e35d092a7ec96cf5" target="_top" xlink:title="Checks if a time interval has expired since a given timestamp.">
<polygon fill="white" stroke="#666666" points="233.75,-210 186.25,-210 186.25,-190 233.75,-190 233.75,-210"/>
<text xml:space="preserve" text-anchor="middle" x="210" y="-196.5" font-family="Helvetica,sans-Serif" font-size="10.00">expired</text>
</a>
</g>
</g>
<!-- Node1&#45;&gt;Node2 -->
<g id="edge1_Node000001_Node000002" class="edge">
<title>Node1&#45;&gt;Node2</title>
<g id="a_edge1_Node000001_Node000002"><a xlink:title=" ">
<path fill="none" stroke="#63b8ff" d="M61.25,-115.26C75.76,-131.6 106.42,-163.5 139,-181 150.1,-186.96 163.21,-191.16 175.07,-194.07"/>
<polygon fill="#63b8ff" stroke="#63b8ff" points="173.95,-197.41 184.47,-196.15 175.46,-190.58 173.95,-197.41"/>
</a>
</g>
</g>
<!-- Node3 -->
<g id="Node000003" class="node">
<title>Node3</title>
<g id="a_Node000003"><a xlink:href="class_garage_light.html#a22b20dfc40a4a4cb6b8819e77ad97f95" target="_top" xlink:title="Gets the current light on/off state.">
<polygon fill="white" stroke="#666666" points="257.38,-172 162.62,-172 162.62,-152 257.38,-152 257.38,-172"/>
<text xml:space="preserve" text-anchor="middle" x="210" y="-158.5" font-family="Helvetica,sans-Serif" font-size="10.00">GarageLight::isOn</text>
</a>
</g>
</g>
<!-- Node1&#45;&gt;Node3 -->
<g id="edge2_Node000001_Node000003" class="edge">
<title>Node1&#45;&gt;Node3</title>
<g id="a_edge2_Node000001_Node000003"><a xlink:title=" ">
<path fill="none" stroke="#63b8ff" d="M73.83,-115.43C91.12,-123.63 116.26,-134.97 139,-143 144.35,-144.89 149.99,-146.71 155.65,-148.41"/>
<polygon fill="#63b8ff" stroke="#63b8ff" points="154.46,-151.71 165.03,-151.13 156.4,-144.98 154.46,-151.71"/>
</a>
</g>
</g>
<!-- Node4 -->
<g id="Node000004" class="node">
<title>Node4</title>
<g id="a_Node000004"><a xlink:href="class_garage_door.html#a9870dca3edc28f9217246f6f6d7b6ec2" target="_top" xlink:title="Manually activates the door relay button.">
<polygon fill="white" stroke="#666666" points="281,-134 139,-134 139,-114 281,-114 281,-134"/>
<text xml:space="preserve" text-anchor="middle" x="210" y="-120.5" font-family="Helvetica,sans-Serif" font-size="10.00">GarageDoor::manualActivate</text>
</a>
</g>
</g>
<!-- Node1&#45;&gt;Node4 -->
<g id="edge3_Node000001_Node000004" class="edge">
<title>Node1&#45;&gt;Node4</title>
<g id="a_edge3_Node000001_Node000004"><a xlink:title=" ">
<path fill="none" stroke="#63b8ff" d="M103.31,-111.17C111.04,-112.11 119.18,-113.1 127.37,-114.09"/>
<polygon fill="#63b8ff" stroke="#63b8ff" points="126.69,-117.53 137.04,-115.26 127.53,-110.58 126.69,-117.53"/>
</a>
</g>
</g>
<!-- Node5 -->
<g id="Node000005" class="node">
<title>Node5</title>
<g id="a_Node000005"><a xlink:href="class_menu_controller.html#ac5a7f6caf6a8eaeeec9f634e539cc3a0" target="_top" xlink:title="Resets the menu timeout due to external activity.">
<polygon fill="white" stroke="#666666" points="279.88,-96 140.12,-96 140.12,-76 279.88,-76 279.88,-96"/>
<text xml:space="preserve" text-anchor="middle" x="210" y="-82.5" font-family="Helvetica,sans-Serif" font-size="10.00">MenuController::noteActivity</text>
</a>
</g>
</g>
<!-- Node1&#45;&gt;Node5 -->
<g id="edge4_Node000001_Node000005" class="edge">
<title>Node1&#45;&gt;Node5</title>
<g id="a_edge4_Node000001_Node000005"><a xlink:title=" ">
<path fill="none" stroke="#63b8ff" d="M103.31,-98.83C111.38,-97.85 119.89,-96.82 128.44,-95.78"/>
<polygon fill="#63b8ff" stroke="#63b8ff" points="128.66,-99.28 138.17,-94.6 127.82,-92.33 128.66,-99.28"/>
</a>
</g>
</g>
<!-- Node7 -->
<g id="Node000007" class="node">
<title>Node7</title>
<g id="a_Node000007"><a xlink:href="class_garage_light.html#aa04933af970e45cd7d524c7ab69f64f5" target="_top" xlink:title="Turns the light off immediately.">
<polygon fill="white" stroke="#666666" points="261.88,-58 158.12,-58 158.12,-38 261.88,-38 261.88,-58"/>
<text xml:space="preserve" text-anchor="middle" x="210" y="-44.5" font-family="Helvetica,sans-Serif" font-size="10.00">GarageLight::turnOff</text>
</a>
</g>
</g>
<!-- Node1&#45;&gt;Node7 -->
<g id="edge6_Node000001_Node000007" class="edge">
<title>Node1&#45;&gt;Node7</title>
<g id="a_edge6_Node000001_Node000007"><a xlink:title=" ">
<path fill="none" stroke="#63b8ff" d="M73.83,-94.57C91.12,-86.37 116.26,-75.03 139,-67 144.35,-65.11 149.99,-63.29 155.65,-61.59"/>
<polygon fill="#63b8ff" stroke="#63b8ff" points="156.4,-65.02 165.03,-58.87 154.46,-58.29 156.4,-65.02"/>
</a>
</g>
</g>
<!-- Node8 -->
<g id="Node000008" class="node">
<title>Node8</title>
<g id="a_Node000008"><a xlink:href="class_garage_light.html#a7e09277f75a4a1500048b20a156cc33f" target="_top" xlink:title="Turns the light on and resets the timeout.">
<polygon fill="white" stroke="#666666" points="261.88,-20 158.12,-20 158.12,0 261.88,0 261.88,-20"/>
<text xml:space="preserve" text-anchor="middle" x="210" y="-6.5" font-family="Helvetica,sans-Serif" font-size="10.00">GarageLight::turnOn</text>
</a>
</g>
</g>
<!-- Node1&#45;&gt;Node8 -->
<g id="edge7_Node000001_Node000008" class="edge">
<title>Node1&#45;&gt;Node8</title>
<g id="a_edge7_Node000001_Node000008"><a xlink:title=" ">
<path fill="none" stroke="#63b8ff" d="M61.25,-94.74C75.76,-78.4 106.42,-46.5 139,-29 142.06,-27.35 145.28,-25.84 148.58,-24.46"/>
<polygon fill="#63b8ff" stroke="#63b8ff" points="149.77,-27.75 157.91,-20.97 147.32,-21.19 149.77,-27.75"/>
</a>
</g>
</g>
<!-- Node6 -->
<g id="Node000006" class="node">
<title>Node6</title>
<g id="a_Node000006"><a xlink:href="_utility_8h.html#a0b367d87e38eb8541b95194a0d870322" target="_top" xlink:title=" ">
<polygon fill="white" stroke="#666666" points="351,-58 317,-58 317,-38 351,-38 351,-58"/>
<text xml:space="preserve" text-anchor="middle" x="334" y="-44.5" font-family="Helvetica,sans-Serif" font-size="10.00">now</text>
</a>
</g>
</g>
<!-- Node5&#45;&gt;Node6 -->
<g id="edge5_Node000005_Node000006" class="edge">
<title>Node5&#45;&gt;Node6</title>
<g id="a_edge5_Node000005_Node000006"><a xlink:title=" ">
<path fill="none" stroke="#63b8ff" d="M251.89,-75.53C261.48,-72.9 271.64,-69.97 281,-67 289.22,-64.39 298.06,-61.27 306.09,-58.33"/>
<polygon fill="#63b8ff" stroke="#63b8ff" points="307.17,-61.66 315.31,-54.88 304.72,-55.1 307.17,-61.66"/>
</a>
</g>
</g>
<!-- Node8&#45;&gt;Node6 -->
<g id="edge8_Node000008_Node000006" class="edge">
<title>Node8&#45;&gt;Node6</title>
<g id="a_edge8_Node000008_Node000006"><a xlink:title=" ">
<path fill="none" stroke="#63b8ff" d="M251.89,-20.47C261.48,-23.1 271.64,-26.03 281,-29 289.22,-31.61 298.06,-34.73 306.09,-37.67"/>
<polygon fill="#63b8ff" stroke="#63b8ff" points="304.72,-40.9 315.31,-41.12 307.17,-34.34 304.72,-40.9"/>
</a>
</g>
</g>
</g>
</svg>
