<?xml version="1.0" encoding="UTF-8" standalone="no"?>
<!DOCTYPE svg PUBLIC "-//W3C//DTD SVG 1.1//EN"
 "http://www.w3.org/Graphics/SVG/1.1/DTD/svg11.dtd">
<!-- Generated by graphviz version 14.1.2 (20260124.0452)
 -->
<!-- Title: LcdController::updateDisplay Pages: 1 -->
<svg width="333pt" height="66pt"
 viewBox="0.00 0.00 333.00 66.00" xmlns="http://www.w3.org/2000/svg" xmlns:xlink="http://www.w3.org/1999/xlink">
<g id="graph0" class="graph" transform="scale(1 1) rotate(0) translate(4 62)">
<title>LcdController::updateDisplay</title>
<!-- Node1 -->
<g id="Node000001" class="node">
<title>Node1</title>
<g id="a_Node000001"><a xlink:title="Updates the LCD display with current system state.">
<polygon fill="#999999" stroke="#666666" points="142,-39 0,-39 0,-19 142,-19 142,-39"/>
<text xml:space="preserve" text-anchor="middle" x="71" y="-25.5" font-family="Helvetica,sans-Serif" font-size="10.00">LcdController::updateDisplay</text>
</a>
</g>
</g>
<!-- Node2 -->
<g id="Node000002" class="node">
<title>Node2</title>
<g id="a_Node000002"><a xlink:href="class_garage_door.html#ad30d94f83150a4b61e953971ee6deaea" target="_top" xlink:title="Gets the configured auto&#45;close duration.">
<polygon fill="white" stroke="#666666" points="318.12,-58 184.38,-58 184.38,-38 318.12,-38 318.12,-58"/>
<text xml:space="preserve" text-anchor="middle" x="251.25" y="-44.5" font-family="Helvetica,sans-Serif" font-size="10.00">GarageDoor::getAutoClose</text>
</a>
</g>
</g>
<!-- Node1&#45;&gt;Node2 -->
<g id="edge1_Node000001_Node000002" class="edge">
<title>Node1&#45;&gt;Node2</title>
<g id="a_edge1_Node000001_Node000002"><a xlink:title=" ">
<path fill="none" stroke="#63b8ff" d="M142.45,-36.51C152.42,-37.57 162.71,-38.67 172.81,-39.75"/>
<polygon fill="#63b8ff" stroke="#63b8ff" points="172.27,-43.21 182.58,-40.79 173.01,-36.25 172.27,-43.21"/>
</a>
</g>
</g>
<!-- Node3 -->
<g id="Node000003" class="node">
<title>Node3</title>
<g id="a_Node000003"><a xlink:href="class_garage_door.html#a5d5faa2abbefe3e86bba1934ef4a90ec" target="_top" xlink:title="Gets the maximum auto&#45;close retry attempts.">
<polygon fill="white" stroke="#666666" points="324.5,-20 178,-20 178,0 324.5,0 324.5,-20"/>
<text xml:space="preserve" text-anchor="middle" x="251.25" y="-6.5" font-family="Helvetica,sans-Serif" font-size="10.00">GarageDoor::getMaxAttempts</text>
</a>
</g>
</g>
<!-- Node1&#45;&gt;Node3 -->
<g id="edge2_Node000001_Node000003" class="edge">
<title>Node1&#45;&gt;Node3</title>
<g id="a_edge2_Node000001_Node000003"><a xlink:title=" ">
<path fill="none" stroke="#63b8ff" d="M142.45,-21.49C150.32,-20.65 158.39,-19.79 166.41,-18.94"/>
<polygon fill="#63b8ff" stroke="#63b8ff" points="166.6,-22.44 176.18,-17.9 165.86,-15.48 166.6,-22.44"/>
</a>
</g>
</g>
</g>
</svg>
