<?xml version="1.0" encoding="UTF-8" standalone="no"?>
<!DOCTYPE svg PUBLIC "-//W3C//DTD SVG 1.1//EN"
 "http://www.w3.org/Graphics/SVG/1.1/DTD/svg11.dtd">
<!-- Generated by graphviz version 14.1.2 (20260124.0452)
 -->
<!-- Title: GarageLight::isOn Pages: 1 -->
<svg width="278pt" height="66pt"
 viewBox="0.00 0.00 278.00 66.00" xmlns="http://www.w3.org/2000/svg" xmlns:xlink="http://www.w3.org/1999/xlink">
<g id="graph0" class="graph" transform="scale(1 1) rotate(0) translate(4 62)">
<title>GarageLight::isOn</title>
<!-- Node1 -->
<g id="Node000001" class="node">
<title>Node1</title>
<g id="a_Node000001"><a xlink:title="Gets the current light on/off state.">
<polygon fill="#999999" stroke="#666666" points="269.75,-39 175,-39 175,-19 269.75,-19 269.75,-39"/>
<text xml:space="preserve" text-anchor="middle" x="222.38" y="-25.5" font-family="Helvetica,sans-Serif" font-size="10.00">GarageLight::isOn</text>
</a>
</g>
</g>
<!-- Node2 -->
<g id="Node000002" class="node">
<title>Node2</title>
<g id="a_Node000002"><a xlink:href="class_garage_light.html#a9666ccbc01cca5c04758d78a8fedca70" target="_top" xlink:title="Gets time remaining before auto&#45;off timeout expires.">
<polygon fill="white" stroke="#666666" points="139,-58 0,-58 0,-38 139,-38 139,-58"/>
<text xml:space="preserve" text-anchor="middle" x="69.5" y="-44.5" font-family="Helvetica,sans-Serif" font-size="10.00">GarageLight::lightRemaining</text>
</a>
</g>
</g>
<!-- Node1&#45;&gt;Node2 -->
<g id="edge1_Node000001_Node000002" class="edge">
<title>Node1&#45;&gt;Node2</title>
<g id="a_edge1_Node000001_Node000002"><a xlink:title=" ">
<path fill="none" stroke="#63b8ff" d="M163.51,-36.29C155.59,-37.28 147.4,-38.32 139.31,-39.33"/>
<polygon fill="#63b8ff" stroke="#63b8ff" points="163.89,-39.77 173.37,-35.04 163.02,-32.82 163.89,-39.77"/>
</a>
</g>
</g>
<!-- Node3 -->
<g id="Node000003" class="node">
<title>Node3</title>
<g id="a_Node000003"><a xlink:href="class_menu_controller.html#a1573df6b0eaf60590b8efa1bb76584dc" target="_top" xlink:title="Polls button inputs and updates menu state.">
<polygon fill="white" stroke="#666666" points="121,-20 18,-20 18,0 121,0 121,-20"/>
<text xml:space="preserve" text-anchor="middle" x="69.5" y="-6.5" font-family="Helvetica,sans-Serif" font-size="10.00">MenuController::poll</text>
</a>
</g>
</g>
<!-- Node1&#45;&gt;Node3 -->
<g id="edge2_Node000001_Node000003" class="edge">
<title>Node1&#45;&gt;Node3</title>
<g id="a_edge2_Node000001_Node000003"><a xlink:title=" ">
<path fill="none" stroke="#63b8ff" d="M163.45,-21.71C149.57,-19.96 134.84,-18.1 121.31,-16.4"/>
<polygon fill="#63b8ff" stroke="#63b8ff" points="163.02,-25.18 173.37,-22.96 163.89,-18.23 163.02,-25.18"/>
</a>
</g>
</g>
</g>
</svg>
